G75*
%MOIN*%
%OFA0B0*%
%FSLAX25Y25*%
%IPPOS*%
%LPD*%
%AMOC8*
5,1,8,0,0,1.08239X$1,22.5*
%
%ADD10C,0.00000*%
%ADD11C,0.00600*%
%ADD12C,0.00500*%
D10*
X0001800Y0001800D02*
X0001800Y0198650D01*
X0198650Y0198650D01*
X0198650Y0001800D01*
X0001800Y0001800D01*
D11*
X0042303Y0038100D02*
X0039100Y0042370D01*
X0041235Y0044545D02*
X0043370Y0044545D01*
X0045505Y0046681D01*
X0043370Y0048842D02*
X0045505Y0050978D01*
X0043370Y0053113D01*
X0038032Y0055288D02*
X0038032Y0059558D01*
X0043370Y0061733D02*
X0045505Y0063869D01*
X0043370Y0066004D01*
X0045505Y0068179D02*
X0043370Y0070314D01*
X0041235Y0070314D01*
X0039100Y0068179D01*
X0039100Y0072476D02*
X0042303Y0076746D01*
X0045505Y0072476D01*
X0049600Y0073524D02*
X0049600Y0070321D01*
X0050668Y0069253D01*
X0051735Y0070321D01*
X0051735Y0073524D01*
X0052803Y0073524D02*
X0049600Y0073524D01*
X0052803Y0073524D02*
X0053870Y0072456D01*
X0053870Y0070321D01*
X0052803Y0067078D02*
X0049600Y0067078D01*
X0052803Y0067078D02*
X0053870Y0066010D01*
X0053870Y0063875D01*
X0052803Y0062808D01*
X0052803Y0060633D02*
X0049600Y0060633D01*
X0049600Y0057430D01*
X0050668Y0056362D01*
X0051735Y0057430D01*
X0051735Y0060633D01*
X0052803Y0060633D02*
X0053870Y0059565D01*
X0053870Y0057430D01*
X0053870Y0054194D02*
X0053870Y0053126D01*
X0051735Y0050991D01*
X0049600Y0050991D02*
X0053870Y0050991D01*
X0052803Y0048816D02*
X0053870Y0047748D01*
X0053870Y0044545D01*
X0056005Y0044545D02*
X0049600Y0044545D01*
X0049600Y0047748D01*
X0050668Y0048816D01*
X0052803Y0048816D01*
X0052803Y0042370D02*
X0052803Y0038100D01*
X0053870Y0038100D02*
X0049600Y0038100D01*
X0049600Y0042370D02*
X0053870Y0042370D01*
X0056005Y0040235D01*
X0053870Y0038100D01*
X0045505Y0042370D02*
X0042303Y0038100D01*
X0041235Y0044545D02*
X0039100Y0046681D01*
X0049600Y0062808D02*
X0056005Y0062808D01*
X0053870Y0075699D02*
X0049600Y0075699D01*
X0049600Y0077834D02*
X0052803Y0077834D01*
X0053870Y0078901D01*
X0052803Y0079969D01*
X0049600Y0079969D01*
X0052803Y0077834D02*
X0053870Y0076766D01*
X0053870Y0075699D01*
X0054938Y0088590D02*
X0056005Y0089657D01*
X0056005Y0091792D01*
X0054938Y0092860D01*
X0053870Y0092860D01*
X0049600Y0088590D01*
X0049600Y0092860D01*
X0050668Y0095035D02*
X0054938Y0099306D01*
X0050668Y0099306D01*
X0049600Y0098238D01*
X0049600Y0096103D01*
X0050668Y0095035D01*
X0054938Y0095035D01*
X0056005Y0096103D01*
X0056005Y0098238D01*
X0054938Y0099306D01*
X0053870Y0101481D02*
X0056005Y0103616D01*
X0049600Y0103616D01*
X0049600Y0101481D02*
X0049600Y0105751D01*
X0050668Y0107926D02*
X0049600Y0108994D01*
X0049600Y0111129D01*
X0050668Y0112197D01*
X0051735Y0112197D01*
X0052803Y0111129D01*
X0052803Y0107926D01*
X0050668Y0107926D01*
X0052803Y0107926D02*
X0054938Y0110061D01*
X0056005Y0112197D01*
D12*
X0156446Y0166131D02*
X0156446Y0201564D01*
X0187154Y0201564D01*
X0187154Y0166131D01*
X0156446Y0166131D01*
X0168847Y0179910D02*
X0166879Y0199595D01*
X0163926Y0199595D02*
X0165894Y0181879D01*
X0168847Y0179910D02*
X0174753Y0179910D01*
X0176721Y0199595D01*
X0179674Y0199595D02*
X0177706Y0183847D01*
X0185580Y0183847D02*
X0183611Y0199595D01*
X0179674Y0199595D01*
X0163926Y0199595D02*
X0159989Y0199595D01*
X0158020Y0181879D01*
M02*
