G75*
%MOIN*%
%OFA0B0*%
%FSLAX25Y25*%
%IPPOS*%
%LPD*%
%AMOC8*
5,1,8,0,0,1.08239X$1,22.5*
%
%ADD10C,0.00000*%
%ADD11C,0.00600*%
%ADD12C,0.00500*%
D10*
X0001800Y0001800D02*
X0001800Y0198650D01*
X0198650Y0198650D01*
X0198650Y0001800D01*
X0001800Y0001800D01*
D11*
X0044100Y0038100D02*
X0048370Y0038100D01*
X0050505Y0040235D01*
X0048370Y0042370D01*
X0044100Y0042370D01*
X0044100Y0044545D02*
X0044100Y0047748D01*
X0045168Y0048816D01*
X0047303Y0048816D01*
X0048370Y0047748D01*
X0048370Y0044545D01*
X0050505Y0044545D02*
X0044100Y0044545D01*
X0047303Y0042370D02*
X0047303Y0038100D01*
X0048370Y0050991D02*
X0044100Y0050991D01*
X0046235Y0050991D02*
X0048370Y0053126D01*
X0048370Y0054194D01*
X0045168Y0056362D02*
X0046235Y0057430D01*
X0046235Y0060633D01*
X0047303Y0060633D02*
X0044100Y0060633D01*
X0044100Y0057430D01*
X0045168Y0056362D01*
X0048370Y0057430D02*
X0048370Y0059565D01*
X0047303Y0060633D01*
X0047303Y0062808D02*
X0048370Y0063875D01*
X0048370Y0066010D01*
X0047303Y0067078D01*
X0044100Y0067078D01*
X0045168Y0069253D02*
X0046235Y0070321D01*
X0046235Y0073524D01*
X0047303Y0073524D02*
X0044100Y0073524D01*
X0044100Y0070321D01*
X0045168Y0069253D01*
X0048370Y0070321D02*
X0048370Y0072456D01*
X0047303Y0073524D01*
X0048370Y0075699D02*
X0044100Y0075699D01*
X0044100Y0077834D02*
X0047303Y0077834D01*
X0048370Y0078901D01*
X0047303Y0079969D01*
X0044100Y0079969D01*
X0047303Y0077834D02*
X0048370Y0076766D01*
X0048370Y0075699D01*
X0049438Y0088590D02*
X0050505Y0089657D01*
X0050505Y0091792D01*
X0049438Y0092860D01*
X0048370Y0092860D01*
X0044100Y0088590D01*
X0044100Y0092860D01*
X0045168Y0095035D02*
X0049438Y0099306D01*
X0045168Y0099306D01*
X0044100Y0098238D01*
X0044100Y0096103D01*
X0045168Y0095035D01*
X0049438Y0095035D01*
X0050505Y0096103D01*
X0050505Y0098238D01*
X0049438Y0099306D01*
X0048370Y0101481D02*
X0050505Y0103616D01*
X0044100Y0103616D01*
X0044100Y0101481D02*
X0044100Y0105751D01*
X0045168Y0107926D02*
X0044100Y0108994D01*
X0044100Y0111129D01*
X0045168Y0112197D01*
X0046235Y0112197D01*
X0047303Y0111129D01*
X0047303Y0107926D01*
X0045168Y0107926D01*
X0047303Y0107926D02*
X0049438Y0110061D01*
X0050505Y0112197D01*
X0050505Y0062808D02*
X0044100Y0062808D01*
D12*
X0156446Y0166131D02*
X0156446Y0201564D01*
X0187154Y0201564D01*
X0187154Y0166131D01*
X0156446Y0166131D01*
X0168847Y0179910D02*
X0166879Y0199595D01*
X0163926Y0199595D02*
X0165894Y0181879D01*
X0168847Y0179910D02*
X0174753Y0179910D01*
X0176721Y0199595D01*
X0179674Y0199595D02*
X0177706Y0183847D01*
X0185580Y0183847D02*
X0183611Y0199595D01*
X0179674Y0199595D01*
X0163926Y0199595D02*
X0159989Y0199595D01*
X0158020Y0181879D01*
M02*
