G75*
%MOIN*%
%OFA0B0*%
%FSLAX25Y25*%
%IPPOS*%
%LPD*%
%AMOC8*
5,1,8,0,0,1.08239X$1,22.5*
%
%ADD10C,0.00000*%
%ADD11C,0.07400*%
%ADD12C,0.06300*%
%ADD13OC8,0.06300*%
%ADD14C,0.05150*%
%ADD15C,0.11220*%
%ADD16OC8,0.05200*%
%ADD17C,0.05200*%
%ADD18C,0.05937*%
%ADD19C,0.01600*%
%ADD20C,0.04724*%
D10*
X0001800Y0001800D02*
X0001800Y0198650D01*
X0198650Y0198650D01*
X0198650Y0001800D01*
X0001800Y0001800D01*
D11*
X0006800Y0066800D03*
X0006800Y0076800D03*
X0006800Y0086800D03*
X0006800Y0096800D03*
X0006800Y0106800D03*
X0006800Y0116800D03*
X0006800Y0126800D03*
X0006800Y0136800D03*
X0027300Y0151800D03*
X0026300Y0161800D03*
X0027300Y0171800D03*
X0031800Y0191800D03*
X0021800Y0191800D03*
X0011800Y0191800D03*
X0041800Y0191800D03*
X0051800Y0191800D03*
X0061800Y0191800D03*
X0066800Y0066800D03*
X0066800Y0056800D03*
X0066800Y0046800D03*
X0186300Y0036800D03*
X0187300Y0026800D03*
X0186300Y0016800D03*
X0194300Y0066800D03*
X0194300Y0076800D03*
X0194300Y0086800D03*
X0194300Y0096800D03*
X0194300Y0106800D03*
X0194300Y0116800D03*
X0194300Y0126800D03*
X0194300Y0136800D03*
D12*
X0136800Y0061800D03*
D13*
X0146800Y0061800D03*
D14*
X0165501Y0166721D03*
X0168650Y0171446D03*
X0171800Y0166721D03*
X0174950Y0171446D03*
X0178099Y0166721D03*
X0129674Y0191800D03*
X0121800Y0191800D03*
X0113926Y0191800D03*
D15*
X0157430Y0186800D03*
X0186170Y0186800D03*
D16*
X0161800Y0141800D03*
X0151800Y0141800D03*
X0141800Y0156800D03*
X0131800Y0156800D03*
X0114300Y0166800D03*
X0106800Y0161800D03*
X0106800Y0171800D03*
X0081800Y0166800D03*
X0081800Y0176800D03*
X0066800Y0166800D03*
X0066800Y0136800D03*
X0033674Y0121800D03*
X0033674Y0091800D03*
X0026800Y0051800D03*
X0016800Y0051800D03*
X0026800Y0026800D03*
X0036800Y0026800D03*
X0041800Y0011800D03*
X0056800Y0011800D03*
X0066800Y0011800D03*
X0011800Y0011800D03*
X0136800Y0016800D03*
X0166800Y0016800D03*
D17*
X0119400Y0011800D02*
X0114200Y0011800D01*
X0114200Y0021800D02*
X0119400Y0021800D01*
X0119400Y0031800D02*
X0114200Y0031800D01*
X0114200Y0041800D02*
X0119400Y0041800D01*
X0119400Y0051800D02*
X0114200Y0051800D01*
X0114200Y0061800D02*
X0119400Y0061800D01*
X0119400Y0071800D02*
X0114200Y0071800D01*
X0114200Y0081800D02*
X0119400Y0081800D01*
X0119400Y0091800D02*
X0114200Y0091800D01*
X0114200Y0101800D02*
X0119400Y0101800D01*
X0119400Y0111800D02*
X0114200Y0111800D01*
X0114200Y0121800D02*
X0119400Y0121800D01*
X0119400Y0131800D02*
X0114200Y0131800D01*
X0114200Y0141800D02*
X0119400Y0141800D01*
X0089400Y0141800D02*
X0084200Y0141800D01*
X0084200Y0131800D02*
X0089400Y0131800D01*
X0089400Y0121800D02*
X0084200Y0121800D01*
X0084200Y0111800D02*
X0089400Y0111800D01*
X0089400Y0101800D02*
X0084200Y0101800D01*
X0084200Y0091800D02*
X0089400Y0091800D01*
X0089400Y0081800D02*
X0084200Y0081800D01*
X0084200Y0071800D02*
X0089400Y0071800D01*
X0089400Y0061800D02*
X0084200Y0061800D01*
X0084200Y0051800D02*
X0089400Y0051800D01*
X0089400Y0041800D02*
X0084200Y0041800D01*
X0084200Y0031800D02*
X0089400Y0031800D01*
X0089400Y0021800D02*
X0084200Y0021800D01*
X0084200Y0011800D02*
X0089400Y0011800D01*
D18*
X0106052Y0191800D03*
X0137548Y0191800D03*
D19*
X0147469Y0176997D02*
X0163217Y0176997D01*
X0168650Y0171564D01*
X0168650Y0171446D01*
X0178099Y0166721D02*
X0178099Y0161800D01*
X0173099Y0156800D01*
X0156800Y0156800D01*
X0121800Y0191800D01*
X0114300Y0191426D02*
X0113926Y0191800D01*
X0114300Y0191426D02*
X0114300Y0166800D01*
X0114300Y0159300D01*
X0116800Y0156800D01*
X0131800Y0156800D01*
X0116800Y0146800D02*
X0116800Y0141800D01*
X0111800Y0141800D01*
X0101800Y0131800D01*
X0101800Y0096800D01*
X0106800Y0091800D01*
X0116800Y0091800D01*
X0116800Y0101800D02*
X0117194Y0102194D01*
X0153375Y0102194D01*
X0167981Y0116800D01*
X0194300Y0116800D01*
X0194300Y0106800D02*
X0171800Y0106800D01*
X0161800Y0096800D01*
X0161800Y0056800D01*
X0146800Y0041800D01*
X0116800Y0041800D01*
X0116800Y0031800D02*
X0146800Y0031800D01*
X0166800Y0051800D01*
X0166800Y0091800D01*
X0171800Y0096800D01*
X0194300Y0096800D01*
X0194300Y0086800D02*
X0176800Y0086800D01*
X0171800Y0081800D01*
X0171800Y0046800D01*
X0146800Y0021800D01*
X0116800Y0021800D01*
X0116800Y0011800D02*
X0151800Y0011800D01*
X0176800Y0036800D01*
X0176800Y0071800D01*
X0181800Y0076800D01*
X0194300Y0076800D01*
X0151800Y0111800D02*
X0116800Y0111800D01*
X0116800Y0121800D02*
X0151800Y0121800D01*
X0166800Y0136800D01*
X0194300Y0136800D01*
X0194300Y0126800D02*
X0166800Y0126800D01*
X0151800Y0111800D01*
X0151800Y0141800D02*
X0116800Y0141800D01*
X0116800Y0146800D02*
X0106800Y0156800D01*
X0106800Y0161800D01*
X0101800Y0161800D01*
X0086800Y0176800D01*
X0081800Y0176800D01*
X0056800Y0176800D01*
X0051800Y0181800D01*
X0026800Y0181800D01*
X0021800Y0186800D01*
X0021800Y0191800D01*
X0011800Y0191800D02*
X0011800Y0167300D01*
X0027300Y0151800D01*
X0066800Y0151800D01*
X0076800Y0141800D01*
X0086800Y0141800D01*
X0086800Y0131800D02*
X0066800Y0131800D01*
X0056800Y0136800D01*
X0006800Y0136800D01*
X0006800Y0126800D02*
X0056800Y0126800D01*
X0066800Y0121800D01*
X0086800Y0121800D01*
X0086564Y0112036D02*
X0086800Y0111800D01*
X0086564Y0112036D02*
X0051013Y0112036D01*
X0061800Y0106800D02*
X0076800Y0091800D01*
X0086800Y0091800D01*
X0086800Y0081800D02*
X0076800Y0081800D01*
X0061800Y0096800D01*
X0036800Y0096800D01*
X0021800Y0106800D01*
X0006800Y0106800D01*
X0006800Y0096800D02*
X0011800Y0096800D01*
X0016800Y0091800D01*
X0016800Y0086800D01*
X0056800Y0046800D01*
X0056800Y0041800D01*
X0061800Y0036800D01*
X0071800Y0036800D01*
X0076800Y0041800D01*
X0086800Y0041800D01*
X0086800Y0051800D02*
X0076800Y0051800D01*
X0071800Y0046800D01*
X0066800Y0046800D01*
X0051800Y0041800D02*
X0051800Y0036800D01*
X0056800Y0031800D01*
X0086800Y0031800D01*
X0086800Y0021800D02*
X0071800Y0021800D01*
X0066800Y0026800D01*
X0036800Y0026800D01*
X0026800Y0036800D01*
X0026800Y0051800D01*
X0026800Y0061800D01*
X0011800Y0076800D01*
X0006800Y0076800D01*
X0006800Y0086800D02*
X0051800Y0041800D01*
X0066800Y0066800D02*
X0071800Y0066800D01*
X0076800Y0061800D01*
X0086800Y0061800D01*
X0116800Y0061800D02*
X0136800Y0061800D01*
X0098257Y0029359D02*
X0098257Y0015580D01*
X0094320Y0011643D01*
X0086957Y0011643D01*
X0086800Y0011800D01*
X0066800Y0011800D01*
X0056800Y0011800D02*
X0041800Y0011800D01*
X0036800Y0106800D02*
X0061800Y0106800D01*
X0036800Y0106800D02*
X0021800Y0116800D01*
X0006800Y0116800D01*
X0066800Y0166800D02*
X0081800Y0166800D01*
X0166800Y0016800D02*
X0186300Y0016800D01*
D20*
X0153375Y0102194D03*
X0098257Y0029359D03*
X0051013Y0112036D03*
X0147469Y0176997D03*
M02*
