G75*
%MOIN*%
%OFA0B0*%
%FSLAX25Y25*%
%IPPOS*%
%LPD*%
%AMOC8*
5,1,8,0,0,1.08239X$1,22.5*
%
%ADD10C,0.00000*%
%ADD11C,0.07400*%
%ADD12C,0.06300*%
%ADD13OC8,0.06300*%
%ADD14C,0.05150*%
%ADD15C,0.11220*%
%ADD16OC8,0.05200*%
%ADD17C,0.05200*%
%ADD18C,0.05937*%
%ADD19C,0.01600*%
%ADD20C,0.04724*%
D10*
X0001800Y0001800D02*
X0001800Y0198650D01*
X0198650Y0198650D01*
X0198650Y0001800D01*
X0001800Y0001800D01*
D11*
X0006800Y0066800D03*
X0006800Y0076800D03*
X0006800Y0086800D03*
X0006800Y0096800D03*
X0006800Y0106800D03*
X0006800Y0116800D03*
X0006800Y0126800D03*
X0006800Y0136800D03*
X0027300Y0151800D03*
X0026300Y0161800D03*
X0027300Y0171800D03*
X0031800Y0191800D03*
X0021800Y0191800D03*
X0011800Y0191800D03*
X0041800Y0191800D03*
X0051800Y0191800D03*
X0061800Y0191800D03*
X0066800Y0066800D03*
X0066800Y0056800D03*
X0066800Y0046800D03*
X0186300Y0036800D03*
X0187300Y0026800D03*
X0186300Y0016800D03*
X0194300Y0066800D03*
X0194300Y0076800D03*
X0194300Y0086800D03*
X0194300Y0096800D03*
X0194300Y0106800D03*
X0194300Y0116800D03*
X0194300Y0126800D03*
X0194300Y0136800D03*
D12*
X0136800Y0061800D03*
D13*
X0146800Y0061800D03*
D14*
X0165501Y0166721D03*
X0168650Y0171446D03*
X0171800Y0166721D03*
X0174950Y0171446D03*
X0178099Y0166721D03*
X0129674Y0191800D03*
X0121800Y0191800D03*
X0113926Y0191800D03*
D15*
X0157430Y0186800D03*
X0186170Y0186800D03*
D16*
X0161800Y0141800D03*
X0151800Y0141800D03*
X0141800Y0156800D03*
X0131800Y0156800D03*
X0114300Y0166800D03*
X0106800Y0161800D03*
X0106800Y0171800D03*
X0081800Y0166800D03*
X0081800Y0176800D03*
X0066800Y0166800D03*
X0066800Y0136800D03*
X0033674Y0121800D03*
X0033674Y0091800D03*
X0026800Y0051800D03*
X0016800Y0051800D03*
X0026800Y0026800D03*
X0036800Y0026800D03*
X0041800Y0011800D03*
X0056800Y0011800D03*
X0066800Y0011800D03*
X0011800Y0011800D03*
X0136800Y0016800D03*
X0166800Y0016800D03*
D17*
X0119400Y0011800D02*
X0114200Y0011800D01*
X0114200Y0021800D02*
X0119400Y0021800D01*
X0119400Y0031800D02*
X0114200Y0031800D01*
X0114200Y0041800D02*
X0119400Y0041800D01*
X0119400Y0051800D02*
X0114200Y0051800D01*
X0114200Y0061800D02*
X0119400Y0061800D01*
X0119400Y0071800D02*
X0114200Y0071800D01*
X0114200Y0081800D02*
X0119400Y0081800D01*
X0119400Y0091800D02*
X0114200Y0091800D01*
X0114200Y0101800D02*
X0119400Y0101800D01*
X0119400Y0111800D02*
X0114200Y0111800D01*
X0114200Y0121800D02*
X0119400Y0121800D01*
X0119400Y0131800D02*
X0114200Y0131800D01*
X0114200Y0141800D02*
X0119400Y0141800D01*
X0089400Y0141800D02*
X0084200Y0141800D01*
X0084200Y0131800D02*
X0089400Y0131800D01*
X0089400Y0121800D02*
X0084200Y0121800D01*
X0084200Y0111800D02*
X0089400Y0111800D01*
X0089400Y0101800D02*
X0084200Y0101800D01*
X0084200Y0091800D02*
X0089400Y0091800D01*
X0089400Y0081800D02*
X0084200Y0081800D01*
X0084200Y0071800D02*
X0089400Y0071800D01*
X0089400Y0061800D02*
X0084200Y0061800D01*
X0084200Y0051800D02*
X0089400Y0051800D01*
X0089400Y0041800D02*
X0084200Y0041800D01*
X0084200Y0031800D02*
X0089400Y0031800D01*
X0089400Y0021800D02*
X0084200Y0021800D01*
X0084200Y0011800D02*
X0089400Y0011800D01*
D18*
X0106052Y0191800D03*
X0137548Y0191800D03*
D19*
X0135604Y0187227D02*
X0122715Y0187227D01*
X0122710Y0187225D02*
X0124391Y0187922D01*
X0125678Y0189209D01*
X0125860Y0189648D01*
X0125932Y0189507D01*
X0126337Y0188950D01*
X0126824Y0188463D01*
X0127381Y0188058D01*
X0127995Y0187746D01*
X0128650Y0187533D01*
X0129330Y0187425D01*
X0129674Y0187425D01*
X0129674Y0191800D01*
X0129674Y0196175D01*
X0129330Y0196175D01*
X0128650Y0196067D01*
X0127995Y0195854D01*
X0127381Y0195542D01*
X0126824Y0195137D01*
X0126337Y0194650D01*
X0125932Y0194093D01*
X0125860Y0193952D01*
X0125678Y0194391D01*
X0124391Y0195678D01*
X0122710Y0196375D01*
X0120890Y0196375D01*
X0119209Y0195678D01*
X0117922Y0194391D01*
X0117863Y0194250D01*
X0117804Y0194391D01*
X0116517Y0195678D01*
X0114836Y0196375D01*
X0113016Y0196375D01*
X0111335Y0195678D01*
X0110266Y0194610D01*
X0110264Y0194614D01*
X0108866Y0196012D01*
X0107325Y0196650D01*
X0136275Y0196650D01*
X0134734Y0196012D01*
X0133336Y0194614D01*
X0133227Y0194352D01*
X0133011Y0194650D01*
X0132524Y0195137D01*
X0131967Y0195542D01*
X0131353Y0195854D01*
X0130698Y0196067D01*
X0130018Y0196175D01*
X0129674Y0196175D01*
X0129674Y0191800D01*
X0129674Y0191800D01*
X0129674Y0187425D01*
X0130018Y0187425D01*
X0130698Y0187533D01*
X0131353Y0187746D01*
X0131967Y0188058D01*
X0132524Y0188463D01*
X0133011Y0188950D01*
X0133227Y0189248D01*
X0133336Y0188986D01*
X0134734Y0187588D01*
X0136560Y0186831D01*
X0138536Y0186831D01*
X0140362Y0187588D01*
X0141760Y0188986D01*
X0142517Y0190812D01*
X0142517Y0192788D01*
X0141760Y0194614D01*
X0140362Y0196012D01*
X0138821Y0196650D01*
X0196650Y0196650D01*
X0196650Y0141996D01*
X0195434Y0142500D01*
X0193166Y0142500D01*
X0191071Y0141632D01*
X0189468Y0140029D01*
X0188600Y0137934D01*
X0188600Y0135666D01*
X0189468Y0133571D01*
X0191071Y0131968D01*
X0191476Y0131800D01*
X0191071Y0131632D01*
X0189468Y0130029D01*
X0188600Y0127934D01*
X0188600Y0125666D01*
X0189468Y0123571D01*
X0191071Y0121968D01*
X0191476Y0121800D01*
X0191071Y0121632D01*
X0189468Y0120029D01*
X0188600Y0117934D01*
X0188600Y0115666D01*
X0189468Y0113571D01*
X0191071Y0111968D01*
X0191476Y0111800D01*
X0191071Y0111632D01*
X0189468Y0110029D01*
X0188600Y0107934D01*
X0188600Y0105666D01*
X0189468Y0103571D01*
X0191071Y0101968D01*
X0191476Y0101800D01*
X0191071Y0101632D01*
X0189468Y0100029D01*
X0188600Y0097934D01*
X0188600Y0095666D01*
X0189468Y0093571D01*
X0191071Y0091968D01*
X0191476Y0091800D01*
X0191071Y0091632D01*
X0189468Y0090029D01*
X0188600Y0087934D01*
X0188600Y0085666D01*
X0189468Y0083571D01*
X0191071Y0081968D01*
X0191476Y0081800D01*
X0191071Y0081632D01*
X0189468Y0080029D01*
X0189290Y0079600D01*
X0182960Y0079600D01*
X0180899Y0081661D01*
X0180899Y0163052D01*
X0181978Y0164130D01*
X0182674Y0165811D01*
X0182674Y0167631D01*
X0181978Y0169313D01*
X0180691Y0170600D01*
X0179524Y0171083D01*
X0179524Y0172356D01*
X0178828Y0174037D01*
X0177541Y0175324D01*
X0175860Y0176020D01*
X0174543Y0176020D01*
X0172401Y0178347D01*
X0172378Y0178402D01*
X0172025Y0178755D01*
X0171687Y0179122D01*
X0171633Y0179147D01*
X0171591Y0179189D01*
X0171129Y0179381D01*
X0170677Y0179590D01*
X0170617Y0179593D01*
X0170562Y0179616D01*
X0170062Y0179616D01*
X0169564Y0179636D01*
X0169508Y0179616D01*
X0159972Y0179616D01*
X0161741Y0180348D01*
X0163882Y0182489D01*
X0165040Y0185286D01*
X0165040Y0188314D01*
X0163882Y0191111D01*
X0161741Y0193252D01*
X0158944Y0194410D01*
X0155916Y0194410D01*
X0153119Y0193252D01*
X0150978Y0191111D01*
X0149820Y0188314D01*
X0149820Y0185286D01*
X0150978Y0182489D01*
X0153119Y0180348D01*
X0155916Y0179190D01*
X0157183Y0179190D01*
X0157182Y0179189D01*
X0157016Y0179023D01*
X0156816Y0178898D01*
X0156626Y0178633D01*
X0156395Y0178402D01*
X0156305Y0178184D01*
X0151626Y0171649D01*
X0151395Y0171418D01*
X0151305Y0171200D01*
X0151168Y0171009D01*
X0151094Y0170690D01*
X0150969Y0170388D01*
X0150969Y0170153D01*
X0150915Y0169924D01*
X0150969Y0169601D01*
X0150969Y0158109D01*
X0128365Y0139223D01*
X0128245Y0139174D01*
X0127940Y0138868D01*
X0127609Y0138592D01*
X0127549Y0138477D01*
X0127458Y0138386D01*
X0127293Y0137987D01*
X0127092Y0137605D01*
X0127081Y0137476D01*
X0127031Y0137357D01*
X0127031Y0136925D01*
X0126993Y0136495D01*
X0127031Y0136372D01*
X0127031Y0087583D01*
X0125223Y0084600D01*
X0123105Y0084600D01*
X0122006Y0085700D01*
X0120315Y0086400D01*
X0113285Y0086400D01*
X0111594Y0085700D01*
X0110300Y0084406D01*
X0109600Y0082715D01*
X0109600Y0080885D01*
X0110300Y0079194D01*
X0111594Y0077900D01*
X0113285Y0077200D01*
X0120315Y0077200D01*
X0122006Y0077900D01*
X0123105Y0079000D01*
X0126586Y0079000D01*
X0126926Y0078948D01*
X0127138Y0079000D01*
X0127357Y0079000D01*
X0127674Y0079131D01*
X0128007Y0079213D01*
X0128184Y0079343D01*
X0128386Y0079426D01*
X0128629Y0079669D01*
X0128906Y0079872D01*
X0129019Y0080059D01*
X0129174Y0080214D01*
X0129305Y0080531D01*
X0132050Y0085059D01*
X0132205Y0085214D01*
X0132337Y0085531D01*
X0132515Y0085825D01*
X0132548Y0086041D01*
X0132631Y0086243D01*
X0132631Y0086586D01*
X0132684Y0086926D01*
X0132631Y0087138D01*
X0132631Y0135491D01*
X0155235Y0154377D01*
X0155355Y0154426D01*
X0155660Y0154732D01*
X0155991Y0155008D01*
X0156051Y0155123D01*
X0156142Y0155214D01*
X0156307Y0155613D01*
X0156508Y0155995D01*
X0156519Y0156124D01*
X0156568Y0156243D01*
X0156568Y0156675D01*
X0156607Y0157105D01*
X0156568Y0157228D01*
X0156568Y0168933D01*
X0160208Y0174016D01*
X0164763Y0174016D01*
X0164076Y0172356D01*
X0164076Y0170858D01*
X0163821Y0170776D01*
X0163208Y0170463D01*
X0162651Y0170058D01*
X0162164Y0169571D01*
X0161759Y0169014D01*
X0161446Y0168401D01*
X0161234Y0167746D01*
X0161126Y0167066D01*
X0161126Y0166721D01*
X0161126Y0166377D01*
X0161234Y0165697D01*
X0161446Y0165042D01*
X0161759Y0164428D01*
X0162164Y0163871D01*
X0162651Y0163384D01*
X0163208Y0162980D01*
X0163821Y0162667D01*
X0164476Y0162454D01*
X0165156Y0162346D01*
X0165501Y0162346D01*
X0165845Y0162346D01*
X0166525Y0162454D01*
X0167180Y0162667D01*
X0167794Y0162980D01*
X0168351Y0163384D01*
X0168509Y0163543D01*
X0169000Y0163052D01*
X0169000Y0132960D01*
X0134426Y0098386D01*
X0134000Y0097357D01*
X0134000Y0077960D01*
X0130640Y0074600D01*
X0123105Y0074600D01*
X0122006Y0075700D01*
X0120315Y0076400D01*
X0113285Y0076400D01*
X0111594Y0075700D01*
X0110300Y0074406D01*
X0109600Y0072715D01*
X0109600Y0070885D01*
X0110300Y0069194D01*
X0111594Y0067900D01*
X0113285Y0067200D01*
X0120315Y0067200D01*
X0122006Y0067900D01*
X0123105Y0069000D01*
X0132357Y0069000D01*
X0133386Y0069426D01*
X0138386Y0074426D01*
X0139174Y0075214D01*
X0139600Y0076243D01*
X0139600Y0095640D01*
X0173386Y0129426D01*
X0174174Y0130214D01*
X0174600Y0131243D01*
X0174600Y0163052D01*
X0174950Y0163401D01*
X0175299Y0163052D01*
X0175299Y0079944D01*
X0175725Y0078915D01*
X0179426Y0075214D01*
X0180214Y0074426D01*
X0181243Y0074000D01*
X0189290Y0074000D01*
X0189468Y0073571D01*
X0191071Y0071968D01*
X0191764Y0071681D01*
X0191417Y0071504D01*
X0190717Y0070995D01*
X0190105Y0070383D01*
X0189596Y0069683D01*
X0189203Y0068911D01*
X0188935Y0068088D01*
X0188800Y0067233D01*
X0188800Y0067000D01*
X0194100Y0067000D01*
X0194100Y0066600D01*
X0194500Y0066600D01*
X0194500Y0061300D01*
X0194733Y0061300D01*
X0195588Y0061435D01*
X0196411Y0061703D01*
X0196650Y0061825D01*
X0196650Y0003800D01*
X0003800Y0003800D01*
X0003800Y0062181D01*
X0003917Y0062096D01*
X0004689Y0061703D01*
X0005512Y0061435D01*
X0006367Y0061300D01*
X0006600Y0061300D01*
X0006600Y0066600D01*
X0007000Y0066600D01*
X0007000Y0067000D01*
X0012300Y0067000D01*
X0012300Y0067233D01*
X0012165Y0068088D01*
X0011897Y0068911D01*
X0011504Y0069683D01*
X0010995Y0070383D01*
X0010383Y0070995D01*
X0009683Y0071504D01*
X0009336Y0071681D01*
X0010029Y0071968D01*
X0011632Y0073571D01*
X0011810Y0074000D01*
X0022357Y0074000D01*
X0023386Y0074426D01*
X0024174Y0075214D01*
X0028572Y0079612D01*
X0028792Y0079755D01*
X0028962Y0080002D01*
X0029174Y0080214D01*
X0029274Y0080456D01*
X0033910Y0087200D01*
X0035579Y0087200D01*
X0038274Y0089895D01*
X0038274Y0093705D01*
X0035579Y0096400D01*
X0031769Y0096400D01*
X0029074Y0093705D01*
X0029074Y0090051D01*
X0024638Y0083598D01*
X0020640Y0079600D01*
X0011810Y0079600D01*
X0011632Y0080029D01*
X0010029Y0081632D01*
X0009624Y0081800D01*
X0010029Y0081968D01*
X0011632Y0083571D01*
X0012500Y0085666D01*
X0012500Y0087934D01*
X0011632Y0090029D01*
X0010029Y0091632D01*
X0009624Y0091800D01*
X0010029Y0091968D01*
X0011632Y0093571D01*
X0012500Y0095666D01*
X0012500Y0097934D01*
X0011632Y0100029D01*
X0010029Y0101632D01*
X0009624Y0101800D01*
X0010029Y0101968D01*
X0011632Y0103571D01*
X0012500Y0105666D01*
X0012500Y0107934D01*
X0011632Y0110029D01*
X0010029Y0111632D01*
X0009624Y0111800D01*
X0010029Y0111968D01*
X0011632Y0113571D01*
X0012500Y0115666D01*
X0012500Y0117934D01*
X0011632Y0120029D01*
X0010029Y0121632D01*
X0009624Y0121800D01*
X0010029Y0121968D01*
X0011632Y0123571D01*
X0012500Y0125666D01*
X0012500Y0127934D01*
X0011632Y0130029D01*
X0010029Y0131632D01*
X0009624Y0131800D01*
X0010029Y0131968D01*
X0011632Y0133571D01*
X0012500Y0135666D01*
X0012500Y0137934D01*
X0011632Y0140029D01*
X0010029Y0141632D01*
X0007934Y0142500D01*
X0005666Y0142500D01*
X0003800Y0141727D01*
X0003800Y0196650D01*
X0008615Y0196650D01*
X0008571Y0196632D01*
X0006968Y0195029D01*
X0006100Y0192934D01*
X0006100Y0190666D01*
X0006968Y0188571D01*
X0008571Y0186968D01*
X0010666Y0186100D01*
X0012934Y0186100D01*
X0015029Y0186968D01*
X0016632Y0188571D01*
X0016800Y0188976D01*
X0016968Y0188571D01*
X0018571Y0186968D01*
X0020666Y0186100D01*
X0022934Y0186100D01*
X0025029Y0186968D01*
X0026632Y0188571D01*
X0026919Y0189264D01*
X0027096Y0188917D01*
X0027605Y0188217D01*
X0028217Y0187605D01*
X0028917Y0187096D01*
X0029689Y0186703D01*
X0030512Y0186435D01*
X0031367Y0186300D01*
X0031600Y0186300D01*
X0031600Y0191600D01*
X0032000Y0191600D01*
X0032000Y0186300D01*
X0032233Y0186300D01*
X0033088Y0186435D01*
X0033911Y0186703D01*
X0034683Y0187096D01*
X0035383Y0187605D01*
X0035995Y0188217D01*
X0036504Y0188917D01*
X0036681Y0189264D01*
X0036968Y0188571D01*
X0038571Y0186968D01*
X0039000Y0186790D01*
X0039000Y0120692D01*
X0039426Y0119663D01*
X0046650Y0112439D01*
X0046650Y0111169D01*
X0047314Y0109565D01*
X0048542Y0108338D01*
X0050145Y0107674D01*
X0051880Y0107674D01*
X0053484Y0108338D01*
X0054711Y0109565D01*
X0055375Y0111169D01*
X0055375Y0112904D01*
X0054711Y0114507D01*
X0053484Y0115734D01*
X0051880Y0116398D01*
X0050610Y0116398D01*
X0044600Y0122409D01*
X0044600Y0186790D01*
X0045029Y0186968D01*
X0046632Y0188571D01*
X0046800Y0188976D01*
X0046968Y0188571D01*
X0048571Y0186968D01*
X0049000Y0186790D01*
X0049000Y0121243D01*
X0049426Y0120214D01*
X0069426Y0100214D01*
X0070214Y0099426D01*
X0071243Y0099000D01*
X0080495Y0099000D01*
X0081594Y0097900D01*
X0083285Y0097200D01*
X0090315Y0097200D01*
X0092006Y0097900D01*
X0093300Y0099194D01*
X0094000Y0100885D01*
X0094000Y0102715D01*
X0093300Y0104406D01*
X0092006Y0105700D01*
X0090315Y0106400D01*
X0083285Y0106400D01*
X0081594Y0105700D01*
X0080495Y0104600D01*
X0072960Y0104600D01*
X0054600Y0122960D01*
X0054600Y0186790D01*
X0055029Y0186968D01*
X0056632Y0188571D01*
X0056800Y0188976D01*
X0056968Y0188571D01*
X0058571Y0186968D01*
X0060666Y0186100D01*
X0062934Y0186100D01*
X0065029Y0186968D01*
X0066632Y0188571D01*
X0067500Y0190666D01*
X0067500Y0192934D01*
X0066632Y0195029D01*
X0065029Y0196632D01*
X0064985Y0196650D01*
X0104779Y0196650D01*
X0103238Y0196012D01*
X0101840Y0194614D01*
X0101083Y0192788D01*
X0101083Y0190812D01*
X0101840Y0188986D01*
X0103238Y0187588D01*
X0105064Y0186831D01*
X0107040Y0186831D01*
X0108866Y0187588D01*
X0110264Y0188986D01*
X0110266Y0188990D01*
X0111335Y0187922D01*
X0113016Y0187225D01*
X0114836Y0187225D01*
X0116517Y0187922D01*
X0117804Y0189209D01*
X0117863Y0189350D01*
X0117922Y0189209D01*
X0119209Y0187922D01*
X0120890Y0187225D01*
X0122710Y0187225D01*
X0120885Y0187227D02*
X0114841Y0187227D01*
X0113011Y0187227D02*
X0107996Y0187227D01*
X0110104Y0188826D02*
X0110430Y0188826D01*
X0110876Y0195220D02*
X0109659Y0195220D01*
X0102445Y0195220D02*
X0066441Y0195220D01*
X0067215Y0193621D02*
X0101429Y0193621D01*
X0101083Y0192023D02*
X0067500Y0192023D01*
X0067400Y0190424D02*
X0101244Y0190424D01*
X0102000Y0188826D02*
X0066738Y0188826D01*
X0065288Y0187227D02*
X0104108Y0187227D01*
X0104977Y0176200D02*
X0102400Y0173623D01*
X0102400Y0171800D01*
X0106800Y0171800D01*
X0106800Y0171800D01*
X0106800Y0176200D01*
X0108623Y0176200D01*
X0111200Y0173623D01*
X0111200Y0171800D01*
X0106800Y0171800D01*
X0106800Y0171800D01*
X0106800Y0171800D01*
X0106800Y0176200D01*
X0104977Y0176200D01*
X0104815Y0176038D02*
X0086400Y0176038D01*
X0086400Y0174895D02*
X0083705Y0172200D01*
X0079895Y0172200D01*
X0077200Y0174895D01*
X0077200Y0178705D01*
X0079895Y0181400D01*
X0083705Y0181400D01*
X0086400Y0178705D01*
X0086400Y0174895D01*
X0085945Y0174439D02*
X0103217Y0174439D01*
X0102400Y0172841D02*
X0084346Y0172841D01*
X0083705Y0171400D02*
X0079895Y0171400D01*
X0077200Y0168705D01*
X0077200Y0164895D01*
X0079895Y0162200D01*
X0083705Y0162200D01*
X0086400Y0164895D01*
X0086400Y0168705D01*
X0083705Y0171400D01*
X0083863Y0171242D02*
X0102400Y0171242D01*
X0102400Y0171800D02*
X0102400Y0169977D01*
X0104977Y0167400D01*
X0106800Y0167400D01*
X0108623Y0167400D01*
X0109700Y0168477D01*
X0109700Y0165405D01*
X0108705Y0166400D01*
X0104895Y0166400D01*
X0102200Y0163705D01*
X0102200Y0159895D01*
X0104895Y0157200D01*
X0108705Y0157200D01*
X0111400Y0159895D01*
X0111400Y0163195D01*
X0112395Y0162200D01*
X0116205Y0162200D01*
X0118900Y0164895D01*
X0118900Y0168705D01*
X0116205Y0171400D01*
X0112395Y0171400D01*
X0111200Y0170205D01*
X0111200Y0171800D01*
X0106800Y0171800D01*
X0106800Y0167400D01*
X0106800Y0171800D01*
X0106800Y0171800D01*
X0102400Y0171800D01*
X0102734Y0169644D02*
X0085462Y0169644D01*
X0086400Y0168045D02*
X0104332Y0168045D01*
X0106800Y0168045D02*
X0106800Y0168045D01*
X0106800Y0169644D02*
X0106800Y0169644D01*
X0106800Y0171242D02*
X0106800Y0171242D01*
X0106800Y0172841D02*
X0106800Y0172841D01*
X0106800Y0174439D02*
X0106800Y0174439D01*
X0106800Y0176038D02*
X0106800Y0176038D01*
X0108785Y0176038D02*
X0130739Y0176038D01*
X0129141Y0174439D02*
X0110383Y0174439D01*
X0111200Y0172841D02*
X0127542Y0172841D01*
X0125944Y0171242D02*
X0116363Y0171242D01*
X0117962Y0169644D02*
X0124345Y0169644D01*
X0122747Y0168045D02*
X0118900Y0168045D01*
X0118900Y0166447D02*
X0121148Y0166447D01*
X0119550Y0164848D02*
X0118854Y0164848D01*
X0117951Y0163250D02*
X0117255Y0163250D01*
X0116353Y0161651D02*
X0111400Y0161651D01*
X0111400Y0160053D02*
X0114754Y0160053D01*
X0113156Y0158454D02*
X0109959Y0158454D01*
X0111557Y0156856D02*
X0054600Y0156856D01*
X0054600Y0158454D02*
X0103641Y0158454D01*
X0102200Y0160053D02*
X0054600Y0160053D01*
X0054600Y0161651D02*
X0102200Y0161651D01*
X0102200Y0163250D02*
X0084755Y0163250D01*
X0086354Y0164848D02*
X0103343Y0164848D01*
X0109700Y0166447D02*
X0086400Y0166447D01*
X0079737Y0171242D02*
X0068863Y0171242D01*
X0068705Y0171400D02*
X0064895Y0171400D01*
X0062200Y0168705D01*
X0062200Y0164895D01*
X0064895Y0162200D01*
X0068705Y0162200D01*
X0071400Y0164895D01*
X0071400Y0168705D01*
X0068705Y0171400D01*
X0070462Y0169644D02*
X0078138Y0169644D01*
X0077200Y0168045D02*
X0071400Y0168045D01*
X0071400Y0166447D02*
X0077200Y0166447D01*
X0077246Y0164848D02*
X0071354Y0164848D01*
X0069755Y0163250D02*
X0078845Y0163250D01*
X0079254Y0172841D02*
X0054600Y0172841D01*
X0054600Y0174439D02*
X0077655Y0174439D01*
X0077200Y0176038D02*
X0054600Y0176038D01*
X0054600Y0177636D02*
X0077200Y0177636D01*
X0077729Y0179235D02*
X0054600Y0179235D01*
X0054600Y0180833D02*
X0079328Y0180833D01*
X0084272Y0180833D02*
X0145332Y0180833D01*
X0144998Y0180695D02*
X0144100Y0179797D01*
X0135101Y0179797D01*
X0134072Y0179371D01*
X0096671Y0141969D01*
X0095883Y0141181D01*
X0095457Y0140152D01*
X0095457Y0032728D01*
X0094559Y0031830D01*
X0093894Y0030227D01*
X0093894Y0028491D01*
X0094559Y0026888D01*
X0095786Y0025661D01*
X0097389Y0024997D01*
X0099124Y0024997D01*
X0100728Y0025661D01*
X0101955Y0026888D01*
X0102619Y0028491D01*
X0102619Y0030227D01*
X0101955Y0031830D01*
X0101057Y0032728D01*
X0101057Y0138435D01*
X0136818Y0174197D01*
X0144100Y0174197D01*
X0144998Y0173299D01*
X0146602Y0172635D01*
X0148337Y0172635D01*
X0149940Y0173299D01*
X0151167Y0174526D01*
X0151831Y0176129D01*
X0151831Y0177865D01*
X0151167Y0179468D01*
X0149940Y0180695D01*
X0148337Y0181359D01*
X0146602Y0181359D01*
X0144998Y0180695D01*
X0147469Y0176997D02*
X0135658Y0176997D01*
X0098257Y0139595D01*
X0098257Y0029359D01*
X0101613Y0032172D02*
X0104000Y0032172D01*
X0104000Y0033770D02*
X0101057Y0033770D01*
X0101057Y0035369D02*
X0104000Y0035369D01*
X0104000Y0036967D02*
X0101057Y0036967D01*
X0101057Y0038566D02*
X0104000Y0038566D01*
X0104000Y0040164D02*
X0101057Y0040164D01*
X0101057Y0041763D02*
X0104000Y0041763D01*
X0104000Y0043361D02*
X0101057Y0043361D01*
X0101057Y0044960D02*
X0104000Y0044960D01*
X0104000Y0046558D02*
X0101057Y0046558D01*
X0101057Y0048157D02*
X0104000Y0048157D01*
X0104000Y0049755D02*
X0101057Y0049755D01*
X0101057Y0051354D02*
X0104000Y0051354D01*
X0104000Y0052952D02*
X0101057Y0052952D01*
X0101057Y0054551D02*
X0104000Y0054551D01*
X0104000Y0056149D02*
X0101057Y0056149D01*
X0101057Y0057748D02*
X0104000Y0057748D01*
X0104000Y0059346D02*
X0101057Y0059346D01*
X0101057Y0060945D02*
X0104000Y0060945D01*
X0104000Y0062543D02*
X0101057Y0062543D01*
X0101057Y0064142D02*
X0104000Y0064142D01*
X0104000Y0065740D02*
X0101057Y0065740D01*
X0101057Y0067339D02*
X0104000Y0067339D01*
X0104000Y0068937D02*
X0101057Y0068937D01*
X0101057Y0070536D02*
X0104000Y0070536D01*
X0104000Y0072134D02*
X0101057Y0072134D01*
X0101057Y0073733D02*
X0104000Y0073733D01*
X0104000Y0075332D02*
X0101057Y0075332D01*
X0101057Y0076930D02*
X0104000Y0076930D01*
X0104000Y0078529D02*
X0101057Y0078529D01*
X0101057Y0080127D02*
X0104000Y0080127D01*
X0104000Y0081726D02*
X0101057Y0081726D01*
X0101057Y0083324D02*
X0104000Y0083324D01*
X0104000Y0084923D02*
X0101057Y0084923D01*
X0101057Y0086521D02*
X0104000Y0086521D01*
X0104000Y0087357D02*
X0104000Y0028869D01*
X0100480Y0024600D01*
X0093105Y0024600D01*
X0092006Y0025700D01*
X0090315Y0026400D01*
X0083285Y0026400D01*
X0081594Y0025700D01*
X0080300Y0024406D01*
X0079600Y0022715D01*
X0079600Y0020885D01*
X0080300Y0019194D01*
X0081594Y0017900D01*
X0083285Y0017200D01*
X0090315Y0017200D01*
X0092006Y0017900D01*
X0093105Y0019000D01*
X0100640Y0019000D01*
X0104426Y0015214D01*
X0105214Y0014426D01*
X0106243Y0014000D01*
X0110132Y0014000D01*
X0109600Y0012715D01*
X0109600Y0010885D01*
X0110300Y0009194D01*
X0111594Y0007900D01*
X0113285Y0007200D01*
X0120315Y0007200D01*
X0122006Y0007900D01*
X0123300Y0009194D01*
X0124000Y0010885D01*
X0124000Y0012715D01*
X0123468Y0014000D01*
X0133095Y0014000D01*
X0134895Y0012200D01*
X0138705Y0012200D01*
X0141400Y0014895D01*
X0141400Y0018705D01*
X0138705Y0021400D01*
X0134895Y0021400D01*
X0133095Y0019600D01*
X0123468Y0019600D01*
X0124000Y0020885D01*
X0124000Y0022715D01*
X0123300Y0024406D01*
X0122006Y0025700D01*
X0120315Y0026400D01*
X0113285Y0026400D01*
X0111594Y0025700D01*
X0110300Y0024406D01*
X0109600Y0022715D01*
X0109600Y0020885D01*
X0110132Y0019600D01*
X0107960Y0019600D01*
X0105579Y0021981D01*
X0108875Y0025978D01*
X0109174Y0026277D01*
X0109227Y0026405D01*
X0109315Y0026511D01*
X0109438Y0026915D01*
X0109600Y0027306D01*
X0109600Y0027444D01*
X0109640Y0027576D01*
X0109600Y0027997D01*
X0109600Y0085640D01*
X0111782Y0087822D01*
X0113285Y0087200D01*
X0120315Y0087200D01*
X0122006Y0087900D01*
X0123300Y0089194D01*
X0124000Y0090885D01*
X0124000Y0092715D01*
X0123300Y0094406D01*
X0122006Y0095700D01*
X0120315Y0096400D01*
X0113285Y0096400D01*
X0111594Y0095700D01*
X0110300Y0094406D01*
X0110197Y0094157D01*
X0104426Y0088386D01*
X0104000Y0087357D01*
X0104316Y0088120D02*
X0101057Y0088120D01*
X0101057Y0089718D02*
X0105758Y0089718D01*
X0107357Y0091317D02*
X0101057Y0091317D01*
X0101057Y0092915D02*
X0108955Y0092915D01*
X0110408Y0094514D02*
X0101057Y0094514D01*
X0101057Y0096112D02*
X0112590Y0096112D01*
X0113285Y0097200D02*
X0120315Y0097200D01*
X0122006Y0097900D01*
X0123300Y0099194D01*
X0124000Y0100885D01*
X0124000Y0102715D01*
X0123300Y0104406D01*
X0122006Y0105700D01*
X0120315Y0106400D01*
X0113285Y0106400D01*
X0111594Y0105700D01*
X0110300Y0104406D01*
X0109600Y0102715D01*
X0109600Y0100885D01*
X0110300Y0099194D01*
X0111594Y0097900D01*
X0113285Y0097200D01*
X0112052Y0097711D02*
X0101057Y0097711D01*
X0101057Y0099309D02*
X0110253Y0099309D01*
X0109600Y0100908D02*
X0101057Y0100908D01*
X0101057Y0102506D02*
X0109600Y0102506D01*
X0110176Y0104105D02*
X0101057Y0104105D01*
X0101057Y0105703D02*
X0111603Y0105703D01*
X0113039Y0107302D02*
X0101057Y0107302D01*
X0101057Y0108900D02*
X0110594Y0108900D01*
X0110300Y0109194D02*
X0111594Y0107900D01*
X0113285Y0107200D01*
X0120315Y0107200D01*
X0122006Y0107900D01*
X0123300Y0109194D01*
X0124000Y0110885D01*
X0124000Y0112715D01*
X0123300Y0114406D01*
X0122006Y0115700D01*
X0120315Y0116400D01*
X0113285Y0116400D01*
X0111594Y0115700D01*
X0110300Y0114406D01*
X0109600Y0112715D01*
X0109600Y0110885D01*
X0110300Y0109194D01*
X0109760Y0110499D02*
X0101057Y0110499D01*
X0101057Y0112097D02*
X0109600Y0112097D01*
X0110006Y0113696D02*
X0101057Y0113696D01*
X0101057Y0115294D02*
X0111189Y0115294D01*
X0111594Y0117900D02*
X0113285Y0117200D01*
X0120315Y0117200D01*
X0122006Y0117900D01*
X0123300Y0119194D01*
X0124000Y0120885D01*
X0124000Y0122715D01*
X0123300Y0124406D01*
X0122006Y0125700D01*
X0120315Y0126400D01*
X0113285Y0126400D01*
X0111594Y0125700D01*
X0110300Y0124406D01*
X0109600Y0122715D01*
X0109600Y0120885D01*
X0110300Y0119194D01*
X0111594Y0117900D01*
X0111003Y0118491D02*
X0101057Y0118491D01*
X0101057Y0116893D02*
X0127031Y0116893D01*
X0127031Y0118491D02*
X0122597Y0118491D01*
X0123671Y0120090D02*
X0127031Y0120090D01*
X0127031Y0121688D02*
X0124000Y0121688D01*
X0123763Y0123287D02*
X0127031Y0123287D01*
X0127031Y0124885D02*
X0122820Y0124885D01*
X0121089Y0127722D02*
X0121706Y0128037D01*
X0122266Y0128444D01*
X0122756Y0128934D01*
X0123163Y0129494D01*
X0123478Y0130111D01*
X0123692Y0130770D01*
X0123800Y0131454D01*
X0123800Y0131800D01*
X0123800Y0132146D01*
X0123692Y0132830D01*
X0123478Y0133489D01*
X0123163Y0134106D01*
X0122756Y0134666D01*
X0122266Y0135156D01*
X0121706Y0135563D01*
X0121089Y0135878D01*
X0120430Y0136092D01*
X0119746Y0136200D01*
X0116800Y0136200D01*
X0116800Y0131800D01*
X0116800Y0131800D01*
X0123800Y0131800D01*
X0116800Y0131800D01*
X0116800Y0131800D01*
X0116800Y0127400D01*
X0119746Y0127400D01*
X0120430Y0127508D01*
X0121089Y0127722D01*
X0121769Y0128082D02*
X0127031Y0128082D01*
X0127031Y0126484D02*
X0101057Y0126484D01*
X0101057Y0128082D02*
X0111831Y0128082D01*
X0111894Y0128037D02*
X0112511Y0127722D01*
X0113170Y0127508D01*
X0113854Y0127400D01*
X0116800Y0127400D01*
X0116800Y0131800D01*
X0116800Y0131800D01*
X0116800Y0131800D01*
X0109800Y0131800D01*
X0109800Y0132146D01*
X0109908Y0132830D01*
X0110122Y0133489D01*
X0110437Y0134106D01*
X0110844Y0134666D01*
X0111334Y0135156D01*
X0111894Y0135563D01*
X0112511Y0135878D01*
X0113170Y0136092D01*
X0113854Y0136200D01*
X0116800Y0136200D01*
X0116800Y0131800D01*
X0109800Y0131800D01*
X0109800Y0131454D01*
X0109908Y0130770D01*
X0110122Y0130111D01*
X0110437Y0129494D01*
X0110844Y0128934D01*
X0111334Y0128444D01*
X0111894Y0128037D01*
X0110341Y0129681D02*
X0101057Y0129681D01*
X0101057Y0131279D02*
X0109828Y0131279D01*
X0109924Y0132878D02*
X0101057Y0132878D01*
X0101057Y0134476D02*
X0110706Y0134476D01*
X0113118Y0136075D02*
X0101057Y0136075D01*
X0101057Y0137673D02*
X0112142Y0137673D01*
X0111594Y0137900D02*
X0113285Y0137200D01*
X0120315Y0137200D01*
X0122006Y0137900D01*
X0123300Y0139194D01*
X0124000Y0140885D01*
X0124000Y0142715D01*
X0123300Y0144406D01*
X0122006Y0145700D01*
X0120315Y0146400D01*
X0113285Y0146400D01*
X0111594Y0145700D01*
X0110300Y0144406D01*
X0109600Y0142715D01*
X0109600Y0140885D01*
X0110300Y0139194D01*
X0111594Y0137900D01*
X0110268Y0139272D02*
X0101893Y0139272D01*
X0103492Y0140870D02*
X0109606Y0140870D01*
X0109600Y0142469D02*
X0105090Y0142469D01*
X0106689Y0144068D02*
X0110160Y0144068D01*
X0111561Y0145666D02*
X0108287Y0145666D01*
X0109886Y0147265D02*
X0137989Y0147265D01*
X0139902Y0148863D02*
X0111484Y0148863D01*
X0113083Y0150462D02*
X0141815Y0150462D01*
X0141800Y0152400D02*
X0139977Y0152400D01*
X0137400Y0154977D01*
X0137400Y0156800D01*
X0141800Y0156800D01*
X0146200Y0156800D01*
X0146200Y0158623D01*
X0143623Y0161200D01*
X0141800Y0161200D01*
X0141800Y0156800D01*
X0141800Y0156800D01*
X0141800Y0156800D01*
X0146200Y0156800D01*
X0146200Y0154977D01*
X0143623Y0152400D01*
X0141800Y0152400D01*
X0141800Y0156800D01*
X0141800Y0156800D01*
X0141800Y0156800D01*
X0141800Y0161200D01*
X0139977Y0161200D01*
X0137400Y0158623D01*
X0137400Y0156800D01*
X0141800Y0156800D01*
X0141800Y0152400D01*
X0141800Y0153659D02*
X0141800Y0153659D01*
X0141800Y0155257D02*
X0141800Y0155257D01*
X0141800Y0156856D02*
X0141800Y0156856D01*
X0141800Y0158454D02*
X0141800Y0158454D01*
X0141800Y0160053D02*
X0141800Y0160053D01*
X0138830Y0160053D02*
X0135053Y0160053D01*
X0136400Y0158705D02*
X0133705Y0161400D01*
X0129895Y0161400D01*
X0127200Y0158705D01*
X0127200Y0154895D01*
X0129895Y0152200D01*
X0133705Y0152200D01*
X0136400Y0154895D01*
X0136400Y0158705D01*
X0136400Y0158454D02*
X0137400Y0158454D01*
X0137400Y0156856D02*
X0136400Y0156856D01*
X0136400Y0155257D02*
X0137400Y0155257D01*
X0138719Y0153659D02*
X0135164Y0153659D01*
X0128436Y0153659D02*
X0116280Y0153659D01*
X0117878Y0155257D02*
X0127200Y0155257D01*
X0127200Y0156856D02*
X0119477Y0156856D01*
X0121075Y0158454D02*
X0127200Y0158454D01*
X0128547Y0160053D02*
X0122674Y0160053D01*
X0124272Y0161651D02*
X0150969Y0161651D01*
X0150969Y0160053D02*
X0144770Y0160053D01*
X0146200Y0158454D02*
X0150969Y0158454D01*
X0149468Y0156856D02*
X0146200Y0156856D01*
X0146200Y0155257D02*
X0147555Y0155257D01*
X0145642Y0153659D02*
X0144881Y0153659D01*
X0143729Y0152060D02*
X0114681Y0152060D01*
X0109959Y0155257D02*
X0054600Y0155257D01*
X0054600Y0153659D02*
X0108360Y0153659D01*
X0106762Y0152060D02*
X0054600Y0152060D01*
X0054600Y0150462D02*
X0105163Y0150462D01*
X0103565Y0148863D02*
X0054600Y0148863D01*
X0054600Y0147265D02*
X0101966Y0147265D01*
X0100368Y0145666D02*
X0092039Y0145666D01*
X0092006Y0145700D02*
X0090315Y0146400D01*
X0083285Y0146400D01*
X0081594Y0145700D01*
X0080300Y0144406D01*
X0079600Y0142715D01*
X0079600Y0140885D01*
X0080300Y0139194D01*
X0081594Y0137900D01*
X0083285Y0137200D01*
X0090315Y0137200D01*
X0092006Y0137900D01*
X0093300Y0139194D01*
X0094000Y0140885D01*
X0094000Y0142715D01*
X0093300Y0144406D01*
X0092006Y0145700D01*
X0093440Y0144068D02*
X0098769Y0144068D01*
X0097171Y0142469D02*
X0094000Y0142469D01*
X0093994Y0140870D02*
X0095754Y0140870D01*
X0095457Y0139272D02*
X0093332Y0139272D01*
X0091458Y0137673D02*
X0095457Y0137673D01*
X0095457Y0136075D02*
X0091100Y0136075D01*
X0090315Y0136400D02*
X0092006Y0135700D01*
X0093300Y0134406D01*
X0094000Y0132715D01*
X0094000Y0130885D01*
X0093300Y0129194D01*
X0092006Y0127900D01*
X0090315Y0127200D01*
X0083285Y0127200D01*
X0081594Y0127900D01*
X0080300Y0129194D01*
X0079600Y0130885D01*
X0079600Y0132715D01*
X0080300Y0134406D01*
X0081594Y0135700D01*
X0083285Y0136400D01*
X0090315Y0136400D01*
X0093229Y0134476D02*
X0095457Y0134476D01*
X0095457Y0132878D02*
X0093933Y0132878D01*
X0094000Y0131279D02*
X0095457Y0131279D01*
X0095457Y0129681D02*
X0093501Y0129681D01*
X0092188Y0128082D02*
X0095457Y0128082D01*
X0095457Y0126484D02*
X0054600Y0126484D01*
X0054600Y0128082D02*
X0081412Y0128082D01*
X0080099Y0129681D02*
X0054600Y0129681D01*
X0054600Y0131279D02*
X0079600Y0131279D01*
X0079667Y0132878D02*
X0069100Y0132878D01*
X0068623Y0132400D02*
X0071200Y0134977D01*
X0071200Y0136800D01*
X0071200Y0138623D01*
X0068623Y0141200D01*
X0066800Y0141200D01*
X0066800Y0136800D01*
X0066800Y0136800D01*
X0071200Y0136800D01*
X0066800Y0136800D01*
X0066800Y0136800D01*
X0066800Y0136800D01*
X0062400Y0136800D01*
X0062400Y0138623D01*
X0064977Y0141200D01*
X0066800Y0141200D01*
X0066800Y0136800D01*
X0066800Y0132400D01*
X0068623Y0132400D01*
X0066800Y0132400D02*
X0066800Y0136800D01*
X0066800Y0136800D01*
X0062400Y0136800D01*
X0062400Y0134977D01*
X0064977Y0132400D01*
X0066800Y0132400D01*
X0066800Y0132878D02*
X0066800Y0132878D01*
X0066800Y0134476D02*
X0066800Y0134476D01*
X0066800Y0136075D02*
X0066800Y0136075D01*
X0066800Y0137673D02*
X0066800Y0137673D01*
X0066800Y0139272D02*
X0066800Y0139272D01*
X0066800Y0140870D02*
X0066800Y0140870D01*
X0068952Y0140870D02*
X0079606Y0140870D01*
X0079600Y0142469D02*
X0054600Y0142469D01*
X0054600Y0140870D02*
X0064648Y0140870D01*
X0063049Y0139272D02*
X0054600Y0139272D01*
X0054600Y0137673D02*
X0062400Y0137673D01*
X0062400Y0136075D02*
X0054600Y0136075D01*
X0054600Y0134476D02*
X0062901Y0134476D01*
X0064500Y0132878D02*
X0054600Y0132878D01*
X0049000Y0132878D02*
X0044600Y0132878D01*
X0044600Y0134476D02*
X0049000Y0134476D01*
X0049000Y0136075D02*
X0044600Y0136075D01*
X0044600Y0137673D02*
X0049000Y0137673D01*
X0049000Y0139272D02*
X0044600Y0139272D01*
X0044600Y0140870D02*
X0049000Y0140870D01*
X0049000Y0142469D02*
X0044600Y0142469D01*
X0044600Y0144068D02*
X0049000Y0144068D01*
X0049000Y0145666D02*
X0044600Y0145666D01*
X0044600Y0147265D02*
X0049000Y0147265D01*
X0049000Y0148863D02*
X0044600Y0148863D01*
X0044600Y0150462D02*
X0049000Y0150462D01*
X0049000Y0152060D02*
X0044600Y0152060D01*
X0044600Y0153659D02*
X0049000Y0153659D01*
X0049000Y0155257D02*
X0044600Y0155257D01*
X0044600Y0156856D02*
X0049000Y0156856D01*
X0049000Y0158454D02*
X0044600Y0158454D01*
X0044600Y0160053D02*
X0049000Y0160053D01*
X0049000Y0161651D02*
X0044600Y0161651D01*
X0044600Y0163250D02*
X0049000Y0163250D01*
X0049000Y0164848D02*
X0044600Y0164848D01*
X0044600Y0166447D02*
X0049000Y0166447D01*
X0049000Y0168045D02*
X0044600Y0168045D01*
X0044600Y0169644D02*
X0049000Y0169644D01*
X0049000Y0171242D02*
X0044600Y0171242D01*
X0044600Y0172841D02*
X0049000Y0172841D01*
X0049000Y0174439D02*
X0044600Y0174439D01*
X0044600Y0176038D02*
X0049000Y0176038D01*
X0049000Y0177636D02*
X0044600Y0177636D01*
X0044600Y0179235D02*
X0049000Y0179235D01*
X0049000Y0180833D02*
X0044600Y0180833D01*
X0044600Y0182432D02*
X0049000Y0182432D01*
X0049000Y0184030D02*
X0044600Y0184030D01*
X0044600Y0185629D02*
X0049000Y0185629D01*
X0048312Y0187227D02*
X0045288Y0187227D01*
X0046738Y0188826D02*
X0046862Y0188826D01*
X0051800Y0191800D02*
X0051800Y0121800D01*
X0071800Y0101800D01*
X0086800Y0101800D01*
X0091548Y0097711D02*
X0095457Y0097711D01*
X0095457Y0099309D02*
X0093347Y0099309D01*
X0094000Y0100908D02*
X0095457Y0100908D01*
X0095457Y0102506D02*
X0094000Y0102506D01*
X0093424Y0104105D02*
X0095457Y0104105D01*
X0095457Y0105703D02*
X0091997Y0105703D01*
X0090561Y0107302D02*
X0095457Y0107302D01*
X0095457Y0108900D02*
X0093006Y0108900D01*
X0093300Y0109194D02*
X0094000Y0110885D01*
X0094000Y0112715D01*
X0093300Y0114406D01*
X0092006Y0115700D01*
X0090315Y0116400D01*
X0083285Y0116400D01*
X0081594Y0115700D01*
X0080300Y0114406D01*
X0079600Y0112715D01*
X0079600Y0110885D01*
X0080300Y0109194D01*
X0081594Y0107900D01*
X0083285Y0107200D01*
X0090315Y0107200D01*
X0092006Y0107900D01*
X0093300Y0109194D01*
X0093840Y0110499D02*
X0095457Y0110499D01*
X0095457Y0112097D02*
X0094000Y0112097D01*
X0093594Y0113696D02*
X0095457Y0113696D01*
X0095457Y0115294D02*
X0092411Y0115294D01*
X0092006Y0117900D02*
X0090315Y0117200D01*
X0083285Y0117200D01*
X0081594Y0117900D01*
X0080300Y0119194D01*
X0079600Y0120885D01*
X0079600Y0122715D01*
X0080300Y0124406D01*
X0081594Y0125700D01*
X0083285Y0126400D01*
X0090315Y0126400D01*
X0092006Y0125700D01*
X0093300Y0124406D01*
X0094000Y0122715D01*
X0094000Y0120885D01*
X0093300Y0119194D01*
X0092006Y0117900D01*
X0092597Y0118491D02*
X0095457Y0118491D01*
X0095457Y0116893D02*
X0060667Y0116893D01*
X0059068Y0118491D02*
X0081003Y0118491D01*
X0079929Y0120090D02*
X0057470Y0120090D01*
X0055871Y0121688D02*
X0079600Y0121688D01*
X0079837Y0123287D02*
X0054600Y0123287D01*
X0054600Y0124885D02*
X0080780Y0124885D01*
X0080371Y0134476D02*
X0070699Y0134476D01*
X0071200Y0136075D02*
X0082500Y0136075D01*
X0082142Y0137673D02*
X0071200Y0137673D01*
X0070551Y0139272D02*
X0080268Y0139272D01*
X0080160Y0144068D02*
X0054600Y0144068D01*
X0054600Y0145666D02*
X0081561Y0145666D01*
X0063845Y0163250D02*
X0054600Y0163250D01*
X0054600Y0164848D02*
X0062246Y0164848D01*
X0062200Y0166447D02*
X0054600Y0166447D01*
X0054600Y0168045D02*
X0062200Y0168045D01*
X0063138Y0169644D02*
X0054600Y0169644D01*
X0054600Y0171242D02*
X0064737Y0171242D01*
X0054600Y0182432D02*
X0151036Y0182432D01*
X0150340Y0184030D02*
X0054600Y0184030D01*
X0054600Y0185629D02*
X0149820Y0185629D01*
X0149820Y0187227D02*
X0139492Y0187227D01*
X0141600Y0188826D02*
X0150032Y0188826D01*
X0150694Y0190424D02*
X0142356Y0190424D01*
X0142517Y0192023D02*
X0151890Y0192023D01*
X0154012Y0193621D02*
X0142171Y0193621D01*
X0141155Y0195220D02*
X0196650Y0195220D01*
X0196650Y0193621D02*
X0189588Y0193621D01*
X0190481Y0193252D02*
X0187684Y0194410D01*
X0184656Y0194410D01*
X0181859Y0193252D01*
X0179718Y0191111D01*
X0178560Y0188314D01*
X0178560Y0185286D01*
X0179718Y0182489D01*
X0181859Y0180348D01*
X0184656Y0179190D01*
X0187684Y0179190D01*
X0190481Y0180348D01*
X0192622Y0182489D01*
X0193780Y0185286D01*
X0193780Y0188314D01*
X0192622Y0191111D01*
X0190481Y0193252D01*
X0191710Y0192023D02*
X0196650Y0192023D01*
X0196650Y0190424D02*
X0192906Y0190424D01*
X0193568Y0188826D02*
X0196650Y0188826D01*
X0196650Y0187227D02*
X0193780Y0187227D01*
X0193780Y0185629D02*
X0196650Y0185629D01*
X0196650Y0184030D02*
X0193260Y0184030D01*
X0192564Y0182432D02*
X0196650Y0182432D01*
X0196650Y0180833D02*
X0190966Y0180833D01*
X0187792Y0179235D02*
X0196650Y0179235D01*
X0196650Y0177636D02*
X0173055Y0177636D01*
X0174527Y0176038D02*
X0196650Y0176038D01*
X0196650Y0174439D02*
X0178426Y0174439D01*
X0179323Y0172841D02*
X0196650Y0172841D01*
X0196650Y0171242D02*
X0179524Y0171242D01*
X0181647Y0169644D02*
X0196650Y0169644D01*
X0196650Y0168045D02*
X0182503Y0168045D01*
X0182674Y0166447D02*
X0196650Y0166447D01*
X0196650Y0164848D02*
X0182275Y0164848D01*
X0181097Y0163250D02*
X0196650Y0163250D01*
X0196650Y0161651D02*
X0180899Y0161651D01*
X0180899Y0160053D02*
X0196650Y0160053D01*
X0196650Y0158454D02*
X0180899Y0158454D01*
X0180899Y0156856D02*
X0196650Y0156856D01*
X0196650Y0155257D02*
X0180899Y0155257D01*
X0180899Y0153659D02*
X0196650Y0153659D01*
X0196650Y0152060D02*
X0180899Y0152060D01*
X0180899Y0150462D02*
X0196650Y0150462D01*
X0196650Y0148863D02*
X0180899Y0148863D01*
X0180899Y0147265D02*
X0196650Y0147265D01*
X0196650Y0145666D02*
X0180899Y0145666D01*
X0180899Y0144068D02*
X0196650Y0144068D01*
X0196650Y0142469D02*
X0195509Y0142469D01*
X0193091Y0142469D02*
X0180899Y0142469D01*
X0180899Y0140870D02*
X0190309Y0140870D01*
X0189154Y0139272D02*
X0180899Y0139272D01*
X0180899Y0137673D02*
X0188600Y0137673D01*
X0188600Y0136075D02*
X0180899Y0136075D01*
X0180899Y0134476D02*
X0189093Y0134476D01*
X0190161Y0132878D02*
X0180899Y0132878D01*
X0180899Y0131279D02*
X0190718Y0131279D01*
X0189324Y0129681D02*
X0180899Y0129681D01*
X0180899Y0128082D02*
X0188662Y0128082D01*
X0188600Y0126484D02*
X0180899Y0126484D01*
X0180899Y0124885D02*
X0188923Y0124885D01*
X0189752Y0123287D02*
X0180899Y0123287D01*
X0180899Y0121688D02*
X0191207Y0121688D01*
X0189529Y0120090D02*
X0180899Y0120090D01*
X0180899Y0118491D02*
X0188831Y0118491D01*
X0188600Y0116893D02*
X0180899Y0116893D01*
X0180899Y0115294D02*
X0188754Y0115294D01*
X0189416Y0113696D02*
X0180899Y0113696D01*
X0180899Y0112097D02*
X0190942Y0112097D01*
X0189938Y0110499D02*
X0180899Y0110499D01*
X0180899Y0108900D02*
X0189000Y0108900D01*
X0188600Y0107302D02*
X0180899Y0107302D01*
X0180899Y0105703D02*
X0188600Y0105703D01*
X0189247Y0104105D02*
X0180899Y0104105D01*
X0180899Y0102506D02*
X0190533Y0102506D01*
X0190347Y0100908D02*
X0180899Y0100908D01*
X0180899Y0099309D02*
X0189170Y0099309D01*
X0188600Y0097711D02*
X0180899Y0097711D01*
X0180899Y0096112D02*
X0188600Y0096112D01*
X0189077Y0094514D02*
X0180899Y0094514D01*
X0180899Y0092915D02*
X0190124Y0092915D01*
X0190756Y0091317D02*
X0180899Y0091317D01*
X0180899Y0089718D02*
X0189339Y0089718D01*
X0188677Y0088120D02*
X0180899Y0088120D01*
X0180899Y0086521D02*
X0188600Y0086521D01*
X0188908Y0084923D02*
X0180899Y0084923D01*
X0180899Y0083324D02*
X0189715Y0083324D01*
X0191297Y0081726D02*
X0180899Y0081726D01*
X0182433Y0080127D02*
X0189566Y0080127D01*
X0194300Y0076800D02*
X0181800Y0076800D01*
X0178099Y0080501D01*
X0178099Y0166721D01*
X0175101Y0163250D02*
X0174798Y0163250D01*
X0174600Y0161651D02*
X0175299Y0161651D01*
X0175299Y0160053D02*
X0174600Y0160053D01*
X0174600Y0158454D02*
X0175299Y0158454D01*
X0175299Y0156856D02*
X0174600Y0156856D01*
X0174600Y0155257D02*
X0175299Y0155257D01*
X0175299Y0153659D02*
X0174600Y0153659D01*
X0174600Y0152060D02*
X0175299Y0152060D01*
X0175299Y0150462D02*
X0174600Y0150462D01*
X0174600Y0148863D02*
X0175299Y0148863D01*
X0175299Y0147265D02*
X0174600Y0147265D01*
X0174600Y0145666D02*
X0175299Y0145666D01*
X0175299Y0144068D02*
X0174600Y0144068D01*
X0174600Y0142469D02*
X0175299Y0142469D01*
X0175299Y0140870D02*
X0174600Y0140870D01*
X0174600Y0139272D02*
X0175299Y0139272D01*
X0175299Y0137673D02*
X0174600Y0137673D01*
X0174600Y0136075D02*
X0175299Y0136075D01*
X0175299Y0134476D02*
X0174600Y0134476D01*
X0174600Y0132878D02*
X0175299Y0132878D01*
X0175299Y0131279D02*
X0174600Y0131279D01*
X0175299Y0129681D02*
X0173641Y0129681D01*
X0172042Y0128082D02*
X0175299Y0128082D01*
X0175299Y0126484D02*
X0170444Y0126484D01*
X0168845Y0124885D02*
X0175299Y0124885D01*
X0175299Y0123287D02*
X0167247Y0123287D01*
X0165648Y0121688D02*
X0175299Y0121688D01*
X0175299Y0120090D02*
X0164050Y0120090D01*
X0162451Y0118491D02*
X0175299Y0118491D01*
X0175299Y0116893D02*
X0160853Y0116893D01*
X0159254Y0115294D02*
X0175299Y0115294D01*
X0175299Y0113696D02*
X0157656Y0113696D01*
X0156057Y0112097D02*
X0175299Y0112097D01*
X0175299Y0110499D02*
X0154459Y0110499D01*
X0152860Y0108900D02*
X0175299Y0108900D01*
X0175299Y0107302D02*
X0151262Y0107302D01*
X0152507Y0106556D02*
X0150904Y0105892D01*
X0149677Y0104665D01*
X0149013Y0103061D01*
X0149013Y0101326D01*
X0149677Y0099723D01*
X0150575Y0098825D01*
X0150575Y0081952D01*
X0151001Y0080923D01*
X0184039Y0047884D01*
X0184039Y0042033D01*
X0183071Y0041632D01*
X0181468Y0040029D01*
X0180600Y0037934D01*
X0180600Y0035666D01*
X0181468Y0033571D01*
X0183071Y0031968D01*
X0184016Y0031577D01*
X0182468Y0030029D01*
X0181600Y0027934D01*
X0181600Y0025666D01*
X0182468Y0023571D01*
X0184016Y0022023D01*
X0183071Y0021632D01*
X0181468Y0020029D01*
X0180600Y0017934D01*
X0180600Y0015666D01*
X0181468Y0013571D01*
X0183071Y0011968D01*
X0185166Y0011100D01*
X0187434Y0011100D01*
X0189529Y0011968D01*
X0191132Y0013571D01*
X0192000Y0015666D01*
X0192000Y0017934D01*
X0191132Y0020029D01*
X0189584Y0021577D01*
X0190529Y0021968D01*
X0192132Y0023571D01*
X0193000Y0025666D01*
X0193000Y0027934D01*
X0192132Y0030029D01*
X0190529Y0031632D01*
X0189584Y0032023D01*
X0191132Y0033571D01*
X0192000Y0035666D01*
X0192000Y0037934D01*
X0191132Y0040029D01*
X0189639Y0041522D01*
X0189639Y0049601D01*
X0189213Y0050630D01*
X0188425Y0051418D01*
X0156175Y0083668D01*
X0156175Y0098825D01*
X0157073Y0099723D01*
X0157737Y0101326D01*
X0157737Y0103061D01*
X0157073Y0104665D01*
X0155846Y0105892D01*
X0154242Y0106556D01*
X0152507Y0106556D01*
X0150715Y0105703D02*
X0149663Y0105703D01*
X0149445Y0104105D02*
X0148065Y0104105D01*
X0149013Y0102506D02*
X0146466Y0102506D01*
X0144867Y0100908D02*
X0149186Y0100908D01*
X0150090Y0099309D02*
X0143269Y0099309D01*
X0141670Y0097711D02*
X0150575Y0097711D01*
X0150575Y0096112D02*
X0140072Y0096112D01*
X0139600Y0094514D02*
X0150575Y0094514D01*
X0150575Y0092915D02*
X0139600Y0092915D01*
X0139600Y0091317D02*
X0150575Y0091317D01*
X0150575Y0089718D02*
X0139600Y0089718D01*
X0139600Y0088120D02*
X0150575Y0088120D01*
X0150575Y0086521D02*
X0139600Y0086521D01*
X0139600Y0084923D02*
X0150575Y0084923D01*
X0150575Y0083324D02*
X0139600Y0083324D01*
X0139600Y0081726D02*
X0150668Y0081726D01*
X0151797Y0080127D02*
X0139600Y0080127D01*
X0139600Y0078529D02*
X0153395Y0078529D01*
X0154994Y0076930D02*
X0139600Y0076930D01*
X0139222Y0075332D02*
X0156592Y0075332D01*
X0158191Y0073733D02*
X0137693Y0073733D01*
X0136094Y0072134D02*
X0159789Y0072134D01*
X0161388Y0070536D02*
X0134496Y0070536D01*
X0131800Y0071800D02*
X0136800Y0076800D01*
X0136800Y0096800D01*
X0171800Y0131800D01*
X0171800Y0166721D01*
X0168802Y0163250D02*
X0168165Y0163250D01*
X0169000Y0161651D02*
X0156568Y0161651D01*
X0156568Y0160053D02*
X0169000Y0160053D01*
X0169000Y0158454D02*
X0156568Y0158454D01*
X0156585Y0156856D02*
X0169000Y0156856D01*
X0169000Y0155257D02*
X0156160Y0155257D01*
X0154376Y0153659D02*
X0169000Y0153659D01*
X0169000Y0152060D02*
X0152462Y0152060D01*
X0150549Y0150462D02*
X0169000Y0150462D01*
X0169000Y0148863D02*
X0148636Y0148863D01*
X0146723Y0147265D02*
X0169000Y0147265D01*
X0169000Y0145666D02*
X0164156Y0145666D01*
X0163623Y0146200D02*
X0161800Y0146200D01*
X0161800Y0141800D01*
X0166200Y0141800D01*
X0166200Y0143623D01*
X0163623Y0146200D01*
X0161800Y0146200D02*
X0159977Y0146200D01*
X0157400Y0143623D01*
X0157400Y0141800D01*
X0161800Y0141800D01*
X0161800Y0141800D01*
X0161800Y0141800D01*
X0166200Y0141800D01*
X0166200Y0139977D01*
X0163623Y0137400D01*
X0161800Y0137400D01*
X0161800Y0141800D01*
X0161800Y0141800D01*
X0161800Y0141800D01*
X0161800Y0146200D01*
X0161800Y0145666D02*
X0161800Y0145666D01*
X0161800Y0144068D02*
X0161800Y0144068D01*
X0161800Y0142469D02*
X0161800Y0142469D01*
X0161800Y0141800D02*
X0157400Y0141800D01*
X0157400Y0139977D01*
X0159977Y0137400D01*
X0161800Y0137400D01*
X0161800Y0141800D01*
X0161800Y0140870D02*
X0161800Y0140870D01*
X0161800Y0139272D02*
X0161800Y0139272D01*
X0161800Y0137673D02*
X0161800Y0137673D01*
X0163896Y0137673D02*
X0169000Y0137673D01*
X0169000Y0136075D02*
X0133331Y0136075D01*
X0132631Y0134476D02*
X0169000Y0134476D01*
X0168918Y0132878D02*
X0132631Y0132878D01*
X0132631Y0131279D02*
X0167320Y0131279D01*
X0165721Y0129681D02*
X0132631Y0129681D01*
X0132631Y0128082D02*
X0164123Y0128082D01*
X0162524Y0126484D02*
X0132631Y0126484D01*
X0132631Y0124885D02*
X0160926Y0124885D01*
X0159327Y0123287D02*
X0132631Y0123287D01*
X0132631Y0121688D02*
X0157729Y0121688D01*
X0156130Y0120090D02*
X0132631Y0120090D01*
X0132631Y0118491D02*
X0154532Y0118491D01*
X0152933Y0116893D02*
X0132631Y0116893D01*
X0132631Y0115294D02*
X0151335Y0115294D01*
X0149736Y0113696D02*
X0132631Y0113696D01*
X0132631Y0112097D02*
X0148137Y0112097D01*
X0146539Y0110499D02*
X0132631Y0110499D01*
X0132631Y0108900D02*
X0144940Y0108900D01*
X0143342Y0107302D02*
X0132631Y0107302D01*
X0132631Y0105703D02*
X0141743Y0105703D01*
X0140145Y0104105D02*
X0132631Y0104105D01*
X0132631Y0102506D02*
X0138546Y0102506D01*
X0136948Y0100908D02*
X0132631Y0100908D01*
X0132631Y0099309D02*
X0135349Y0099309D01*
X0134147Y0097711D02*
X0132631Y0097711D01*
X0132631Y0096112D02*
X0134000Y0096112D01*
X0134000Y0094514D02*
X0132631Y0094514D01*
X0132631Y0092915D02*
X0134000Y0092915D01*
X0134000Y0091317D02*
X0132631Y0091317D01*
X0132631Y0089718D02*
X0134000Y0089718D01*
X0134000Y0088120D02*
X0132631Y0088120D01*
X0132631Y0086521D02*
X0134000Y0086521D01*
X0134000Y0084923D02*
X0131968Y0084923D01*
X0130998Y0083324D02*
X0134000Y0083324D01*
X0134000Y0081726D02*
X0130029Y0081726D01*
X0129087Y0080127D02*
X0134000Y0080127D01*
X0134000Y0078529D02*
X0122634Y0078529D01*
X0122374Y0075332D02*
X0131372Y0075332D01*
X0132970Y0076930D02*
X0109600Y0076930D01*
X0109600Y0075332D02*
X0111226Y0075332D01*
X0110022Y0073733D02*
X0109600Y0073733D01*
X0109600Y0072134D02*
X0109600Y0072134D01*
X0109600Y0070536D02*
X0109745Y0070536D01*
X0109600Y0068937D02*
X0110557Y0068937D01*
X0109600Y0067339D02*
X0112949Y0067339D01*
X0113285Y0066400D02*
X0111594Y0065700D01*
X0110300Y0064406D01*
X0109600Y0062715D01*
X0109600Y0060885D01*
X0110300Y0059194D01*
X0111594Y0057900D01*
X0113285Y0057200D01*
X0120315Y0057200D01*
X0122006Y0057900D01*
X0123300Y0059194D01*
X0124000Y0060885D01*
X0124000Y0062715D01*
X0123300Y0064406D01*
X0122006Y0065700D01*
X0120315Y0066400D01*
X0113285Y0066400D01*
X0111693Y0065740D02*
X0109600Y0065740D01*
X0109600Y0064142D02*
X0110191Y0064142D01*
X0109600Y0062543D02*
X0109600Y0062543D01*
X0109600Y0060945D02*
X0109600Y0060945D01*
X0109600Y0059346D02*
X0110237Y0059346D01*
X0109600Y0057748D02*
X0111962Y0057748D01*
X0112511Y0055878D02*
X0111894Y0055563D01*
X0111334Y0055156D01*
X0110844Y0054666D01*
X0110437Y0054106D01*
X0110122Y0053489D01*
X0109908Y0052830D01*
X0109800Y0052146D01*
X0109800Y0051800D01*
X0116800Y0051800D01*
X0116800Y0051800D01*
X0116800Y0056200D01*
X0119746Y0056200D01*
X0120430Y0056092D01*
X0121089Y0055878D01*
X0121706Y0055563D01*
X0122266Y0055156D01*
X0122756Y0054666D01*
X0123163Y0054106D01*
X0123478Y0053489D01*
X0123692Y0052830D01*
X0123800Y0052146D01*
X0123800Y0051800D01*
X0116800Y0051800D01*
X0116800Y0051800D01*
X0116800Y0047400D01*
X0119746Y0047400D01*
X0120430Y0047508D01*
X0121089Y0047722D01*
X0121706Y0048037D01*
X0122266Y0048444D01*
X0122756Y0048934D01*
X0123163Y0049494D01*
X0123478Y0050111D01*
X0123692Y0050770D01*
X0123800Y0051454D01*
X0123800Y0051800D01*
X0116800Y0051800D01*
X0116800Y0051800D01*
X0116800Y0051800D01*
X0116800Y0056200D01*
X0113854Y0056200D01*
X0113170Y0056092D01*
X0112511Y0055878D01*
X0113534Y0056149D02*
X0109600Y0056149D01*
X0109600Y0054551D02*
X0110760Y0054551D01*
X0109948Y0052952D02*
X0109600Y0052952D01*
X0109800Y0051800D02*
X0109800Y0051454D01*
X0109908Y0050770D01*
X0110122Y0050111D01*
X0110437Y0049494D01*
X0110844Y0048934D01*
X0111334Y0048444D01*
X0111894Y0048037D01*
X0112511Y0047722D01*
X0113170Y0047508D01*
X0113854Y0047400D01*
X0116800Y0047400D01*
X0116800Y0051800D01*
X0109800Y0051800D01*
X0109816Y0051354D02*
X0109600Y0051354D01*
X0109600Y0049755D02*
X0110304Y0049755D01*
X0109600Y0048157D02*
X0111729Y0048157D01*
X0113285Y0046400D02*
X0111594Y0045700D01*
X0110300Y0044406D01*
X0109600Y0042715D01*
X0109600Y0040885D01*
X0110300Y0039194D01*
X0111594Y0037900D01*
X0113285Y0037200D01*
X0120315Y0037200D01*
X0122006Y0037900D01*
X0123300Y0039194D01*
X0124000Y0040885D01*
X0124000Y0042715D01*
X0123300Y0044406D01*
X0122006Y0045700D01*
X0120315Y0046400D01*
X0113285Y0046400D01*
X0110854Y0044960D02*
X0109600Y0044960D01*
X0109600Y0046558D02*
X0184039Y0046558D01*
X0184039Y0044960D02*
X0122746Y0044960D01*
X0123732Y0043361D02*
X0184039Y0043361D01*
X0183386Y0041763D02*
X0124000Y0041763D01*
X0123701Y0040164D02*
X0181603Y0040164D01*
X0180862Y0038566D02*
X0122671Y0038566D01*
X0122006Y0035700D02*
X0120315Y0036400D01*
X0113285Y0036400D01*
X0111594Y0035700D01*
X0110300Y0034406D01*
X0109600Y0032715D01*
X0109600Y0030885D01*
X0110300Y0029194D01*
X0111594Y0027900D01*
X0113285Y0027200D01*
X0120315Y0027200D01*
X0122006Y0027900D01*
X0123300Y0029194D01*
X0124000Y0030885D01*
X0124000Y0032715D01*
X0123300Y0034406D01*
X0122006Y0035700D01*
X0122337Y0035369D02*
X0180723Y0035369D01*
X0180600Y0036967D02*
X0109600Y0036967D01*
X0109600Y0035369D02*
X0111263Y0035369D01*
X0110037Y0033770D02*
X0109600Y0033770D01*
X0109600Y0032172D02*
X0109600Y0032172D01*
X0109600Y0030573D02*
X0109729Y0030573D01*
X0109600Y0028975D02*
X0110520Y0028975D01*
X0109600Y0027376D02*
X0112860Y0027376D01*
X0111783Y0025778D02*
X0108710Y0025778D01*
X0107391Y0024179D02*
X0110206Y0024179D01*
X0109600Y0022581D02*
X0106073Y0022581D01*
X0106578Y0020982D02*
X0109600Y0020982D01*
X0106800Y0016800D02*
X0136800Y0016800D01*
X0141400Y0016187D02*
X0162200Y0016187D01*
X0162200Y0014895D02*
X0164895Y0012200D01*
X0168705Y0012200D01*
X0171400Y0014895D01*
X0171400Y0018705D01*
X0168705Y0021400D01*
X0164895Y0021400D01*
X0162200Y0018705D01*
X0162200Y0014895D01*
X0162507Y0014588D02*
X0141093Y0014588D01*
X0139495Y0012990D02*
X0164105Y0012990D01*
X0162200Y0017785D02*
X0141400Y0017785D01*
X0140722Y0019384D02*
X0162878Y0019384D01*
X0164477Y0020982D02*
X0139123Y0020982D01*
X0134477Y0020982D02*
X0124000Y0020982D01*
X0124000Y0022581D02*
X0183458Y0022581D01*
X0182421Y0020982D02*
X0169123Y0020982D01*
X0170722Y0019384D02*
X0181201Y0019384D01*
X0180600Y0017785D02*
X0171400Y0017785D01*
X0171400Y0016187D02*
X0180600Y0016187D01*
X0181047Y0014588D02*
X0171093Y0014588D01*
X0169495Y0012990D02*
X0182049Y0012990D01*
X0184463Y0011391D02*
X0124000Y0011391D01*
X0123886Y0012990D02*
X0134105Y0012990D01*
X0123547Y0009793D02*
X0196650Y0009793D01*
X0196650Y0011391D02*
X0188137Y0011391D01*
X0190551Y0012990D02*
X0196650Y0012990D01*
X0196650Y0014588D02*
X0191553Y0014588D01*
X0192000Y0016187D02*
X0196650Y0016187D01*
X0196650Y0017785D02*
X0192000Y0017785D01*
X0191399Y0019384D02*
X0196650Y0019384D01*
X0196650Y0020982D02*
X0190179Y0020982D01*
X0191142Y0022581D02*
X0196650Y0022581D01*
X0196650Y0024179D02*
X0192384Y0024179D01*
X0193000Y0025778D02*
X0196650Y0025778D01*
X0196650Y0027376D02*
X0193000Y0027376D01*
X0192569Y0028975D02*
X0196650Y0028975D01*
X0196650Y0030573D02*
X0191588Y0030573D01*
X0189733Y0032172D02*
X0196650Y0032172D01*
X0196650Y0033770D02*
X0191215Y0033770D01*
X0191877Y0035369D02*
X0196650Y0035369D01*
X0196650Y0036967D02*
X0192000Y0036967D01*
X0191738Y0038566D02*
X0196650Y0038566D01*
X0196650Y0040164D02*
X0190997Y0040164D01*
X0189639Y0041763D02*
X0196650Y0041763D01*
X0196650Y0043361D02*
X0189639Y0043361D01*
X0189639Y0044960D02*
X0196650Y0044960D01*
X0196650Y0046558D02*
X0189639Y0046558D01*
X0189639Y0048157D02*
X0196650Y0048157D01*
X0196650Y0049755D02*
X0189575Y0049755D01*
X0188489Y0051354D02*
X0196650Y0051354D01*
X0196650Y0052952D02*
X0186891Y0052952D01*
X0185292Y0054551D02*
X0196650Y0054551D01*
X0196650Y0056149D02*
X0183694Y0056149D01*
X0182095Y0057748D02*
X0196650Y0057748D01*
X0196650Y0059346D02*
X0180497Y0059346D01*
X0178898Y0060945D02*
X0196650Y0060945D01*
X0194100Y0061300D02*
X0194100Y0066600D01*
X0188800Y0066600D01*
X0188800Y0066367D01*
X0188935Y0065512D01*
X0189203Y0064689D01*
X0189596Y0063917D01*
X0190105Y0063217D01*
X0190717Y0062605D01*
X0191417Y0062096D01*
X0192189Y0061703D01*
X0193012Y0061435D01*
X0193867Y0061300D01*
X0194100Y0061300D01*
X0194100Y0062543D02*
X0194500Y0062543D01*
X0194500Y0064142D02*
X0194100Y0064142D01*
X0194100Y0065740D02*
X0194500Y0065740D01*
X0190802Y0062543D02*
X0177300Y0062543D01*
X0175701Y0064142D02*
X0189482Y0064142D01*
X0188899Y0065740D02*
X0174103Y0065740D01*
X0172504Y0067339D02*
X0188817Y0067339D01*
X0189216Y0068937D02*
X0170906Y0068937D01*
X0169307Y0070536D02*
X0190258Y0070536D01*
X0190904Y0072134D02*
X0167709Y0072134D01*
X0166110Y0073733D02*
X0189401Y0073733D01*
X0179426Y0075214D02*
X0179426Y0075214D01*
X0179309Y0075332D02*
X0164512Y0075332D01*
X0162913Y0076930D02*
X0177710Y0076930D01*
X0176112Y0078529D02*
X0161315Y0078529D01*
X0159716Y0080127D02*
X0175299Y0080127D01*
X0175299Y0081726D02*
X0158118Y0081726D01*
X0156519Y0083324D02*
X0175299Y0083324D01*
X0175299Y0084923D02*
X0156175Y0084923D01*
X0156175Y0086521D02*
X0175299Y0086521D01*
X0175299Y0088120D02*
X0156175Y0088120D01*
X0156175Y0089718D02*
X0175299Y0089718D01*
X0175299Y0091317D02*
X0156175Y0091317D01*
X0156175Y0092915D02*
X0175299Y0092915D01*
X0175299Y0094514D02*
X0156175Y0094514D01*
X0156175Y0096112D02*
X0175299Y0096112D01*
X0175299Y0097711D02*
X0156175Y0097711D01*
X0156659Y0099309D02*
X0175299Y0099309D01*
X0175299Y0100908D02*
X0157564Y0100908D01*
X0157737Y0102506D02*
X0175299Y0102506D01*
X0175299Y0104105D02*
X0157305Y0104105D01*
X0156034Y0105703D02*
X0175299Y0105703D01*
X0153375Y0102194D02*
X0153375Y0082509D01*
X0186839Y0049044D01*
X0186839Y0037339D01*
X0186300Y0036800D01*
X0182867Y0032172D02*
X0124000Y0032172D01*
X0123871Y0030573D02*
X0183012Y0030573D01*
X0182031Y0028975D02*
X0123080Y0028975D01*
X0120740Y0027376D02*
X0181600Y0027376D01*
X0181600Y0025778D02*
X0121817Y0025778D01*
X0123394Y0024179D02*
X0182216Y0024179D01*
X0181385Y0033770D02*
X0123563Y0033770D01*
X0110929Y0038566D02*
X0109600Y0038566D01*
X0109600Y0040164D02*
X0109899Y0040164D01*
X0109600Y0041763D02*
X0109600Y0041763D01*
X0109600Y0043361D02*
X0109868Y0043361D01*
X0116800Y0048157D02*
X0116800Y0048157D01*
X0116800Y0049755D02*
X0116800Y0049755D01*
X0116800Y0051354D02*
X0116800Y0051354D01*
X0116800Y0052952D02*
X0116800Y0052952D01*
X0116800Y0054551D02*
X0116800Y0054551D01*
X0116800Y0056149D02*
X0116800Y0056149D01*
X0120066Y0056149D02*
X0175774Y0056149D01*
X0177373Y0054551D02*
X0122840Y0054551D01*
X0123652Y0052952D02*
X0178971Y0052952D01*
X0180570Y0051354D02*
X0123784Y0051354D01*
X0123296Y0049755D02*
X0182168Y0049755D01*
X0183767Y0048157D02*
X0121871Y0048157D01*
X0121638Y0057748D02*
X0133569Y0057748D01*
X0133883Y0057434D02*
X0135776Y0056650D01*
X0137824Y0056650D01*
X0139717Y0057434D01*
X0141166Y0058883D01*
X0141850Y0060534D01*
X0141850Y0059750D01*
X0144750Y0056850D01*
X0146800Y0056850D01*
X0148850Y0056850D01*
X0151750Y0059750D01*
X0151750Y0061800D01*
X0151750Y0063850D01*
X0148850Y0066750D01*
X0146800Y0066750D01*
X0146800Y0061800D01*
X0151750Y0061800D01*
X0146800Y0061800D01*
X0146800Y0061800D01*
X0146800Y0061800D01*
X0146800Y0056850D01*
X0146800Y0061800D01*
X0146800Y0061800D01*
X0146800Y0066750D01*
X0144750Y0066750D01*
X0141850Y0063850D01*
X0141850Y0063066D01*
X0141166Y0064717D01*
X0139717Y0066166D01*
X0137824Y0066950D01*
X0135776Y0066950D01*
X0133883Y0066166D01*
X0132434Y0064717D01*
X0131650Y0062824D01*
X0131650Y0060776D01*
X0132434Y0058883D01*
X0133883Y0057434D01*
X0132242Y0059346D02*
X0123363Y0059346D01*
X0124000Y0060945D02*
X0131650Y0060945D01*
X0131650Y0062543D02*
X0124000Y0062543D01*
X0123409Y0064142D02*
X0132196Y0064142D01*
X0133457Y0065740D02*
X0121907Y0065740D01*
X0120650Y0067339D02*
X0164585Y0067339D01*
X0166183Y0065740D02*
X0149860Y0065740D01*
X0151458Y0064142D02*
X0167782Y0064142D01*
X0169380Y0062543D02*
X0151750Y0062543D01*
X0151750Y0060945D02*
X0170979Y0060945D01*
X0172577Y0059346D02*
X0151347Y0059346D01*
X0149748Y0057748D02*
X0174176Y0057748D01*
X0162986Y0068937D02*
X0123043Y0068937D01*
X0116800Y0071800D02*
X0131800Y0071800D01*
X0140143Y0065740D02*
X0143740Y0065740D01*
X0142142Y0064142D02*
X0141404Y0064142D01*
X0141358Y0059346D02*
X0142253Y0059346D01*
X0143852Y0057748D02*
X0140031Y0057748D01*
X0146800Y0057748D02*
X0146800Y0057748D01*
X0146800Y0059346D02*
X0146800Y0059346D01*
X0146800Y0060945D02*
X0146800Y0060945D01*
X0146800Y0062543D02*
X0146800Y0062543D01*
X0146800Y0064142D02*
X0146800Y0064142D01*
X0146800Y0065740D02*
X0146800Y0065740D01*
X0126800Y0081800D02*
X0129831Y0086800D01*
X0129831Y0136800D01*
X0153769Y0156800D01*
X0153769Y0169831D01*
X0158769Y0176816D01*
X0170005Y0176816D01*
X0174950Y0171446D01*
X0171481Y0179235D02*
X0184548Y0179235D01*
X0181374Y0180833D02*
X0162226Y0180833D01*
X0163824Y0182432D02*
X0179776Y0182432D01*
X0179080Y0184030D02*
X0164520Y0184030D01*
X0165040Y0185629D02*
X0178560Y0185629D01*
X0178560Y0187227D02*
X0165040Y0187227D01*
X0164828Y0188826D02*
X0178772Y0188826D01*
X0179434Y0190424D02*
X0164166Y0190424D01*
X0162970Y0192023D02*
X0180630Y0192023D01*
X0182752Y0193621D02*
X0160848Y0193621D01*
X0152634Y0180833D02*
X0149606Y0180833D01*
X0151264Y0179235D02*
X0155808Y0179235D01*
X0155912Y0177636D02*
X0151831Y0177636D01*
X0151794Y0176038D02*
X0154768Y0176038D01*
X0153624Y0174439D02*
X0151081Y0174439D01*
X0152479Y0172841D02*
X0148834Y0172841D01*
X0151322Y0171242D02*
X0133863Y0171242D01*
X0132265Y0169644D02*
X0150961Y0169644D01*
X0150969Y0168045D02*
X0130666Y0168045D01*
X0129068Y0166447D02*
X0150969Y0166447D01*
X0150969Y0164848D02*
X0127469Y0164848D01*
X0125871Y0163250D02*
X0150969Y0163250D01*
X0156568Y0163250D02*
X0162836Y0163250D01*
X0161545Y0164848D02*
X0156568Y0164848D01*
X0156568Y0166447D02*
X0161126Y0166447D01*
X0161126Y0166721D02*
X0165501Y0166721D01*
X0165501Y0162346D01*
X0165501Y0166721D01*
X0165501Y0166721D01*
X0165501Y0166721D01*
X0161126Y0166721D01*
X0161331Y0168045D02*
X0156568Y0168045D01*
X0157078Y0169644D02*
X0162236Y0169644D01*
X0164076Y0171242D02*
X0158222Y0171242D01*
X0159366Y0172841D02*
X0164277Y0172841D01*
X0165501Y0166447D02*
X0165501Y0166447D01*
X0165501Y0164848D02*
X0165501Y0164848D01*
X0165501Y0163250D02*
X0165501Y0163250D01*
X0159443Y0145666D02*
X0154439Y0145666D01*
X0153705Y0146400D02*
X0149895Y0146400D01*
X0147200Y0143705D01*
X0147200Y0139895D01*
X0149895Y0137200D01*
X0153705Y0137200D01*
X0156400Y0139895D01*
X0156400Y0143705D01*
X0153705Y0146400D01*
X0156038Y0144068D02*
X0157845Y0144068D01*
X0157400Y0142469D02*
X0156400Y0142469D01*
X0156400Y0140870D02*
X0157400Y0140870D01*
X0158105Y0139272D02*
X0155777Y0139272D01*
X0154179Y0137673D02*
X0159704Y0137673D01*
X0165495Y0139272D02*
X0169000Y0139272D01*
X0169000Y0140870D02*
X0166200Y0140870D01*
X0166200Y0142469D02*
X0169000Y0142469D01*
X0169000Y0144068D02*
X0165755Y0144068D01*
X0149161Y0145666D02*
X0144810Y0145666D01*
X0142897Y0144068D02*
X0147562Y0144068D01*
X0147200Y0142469D02*
X0140983Y0142469D01*
X0139070Y0140870D02*
X0147200Y0140870D01*
X0147823Y0139272D02*
X0137157Y0139272D01*
X0135244Y0137673D02*
X0149421Y0137673D01*
X0136076Y0145666D02*
X0122039Y0145666D01*
X0123440Y0144068D02*
X0134163Y0144068D01*
X0132249Y0142469D02*
X0124000Y0142469D01*
X0123994Y0140870D02*
X0130336Y0140870D01*
X0128423Y0139272D02*
X0123332Y0139272D01*
X0121458Y0137673D02*
X0127128Y0137673D01*
X0127031Y0136075D02*
X0120482Y0136075D01*
X0122894Y0134476D02*
X0127031Y0134476D01*
X0127031Y0132878D02*
X0123676Y0132878D01*
X0123772Y0131279D02*
X0127031Y0131279D01*
X0127031Y0129681D02*
X0123258Y0129681D01*
X0116800Y0129681D02*
X0116800Y0129681D01*
X0116800Y0131279D02*
X0116800Y0131279D01*
X0116800Y0132878D02*
X0116800Y0132878D01*
X0116800Y0134476D02*
X0116800Y0134476D01*
X0116800Y0136075D02*
X0116800Y0136075D01*
X0116800Y0128082D02*
X0116800Y0128082D01*
X0110780Y0124885D02*
X0101057Y0124885D01*
X0101057Y0123287D02*
X0109837Y0123287D01*
X0109600Y0121688D02*
X0101057Y0121688D01*
X0101057Y0120090D02*
X0109929Y0120090D01*
X0120561Y0107302D02*
X0127031Y0107302D01*
X0127031Y0108900D02*
X0123006Y0108900D01*
X0123840Y0110499D02*
X0127031Y0110499D01*
X0127031Y0112097D02*
X0124000Y0112097D01*
X0123594Y0113696D02*
X0127031Y0113696D01*
X0127031Y0115294D02*
X0122411Y0115294D01*
X0121997Y0105703D02*
X0127031Y0105703D01*
X0127031Y0104105D02*
X0123424Y0104105D01*
X0124000Y0102506D02*
X0127031Y0102506D01*
X0127031Y0100908D02*
X0124000Y0100908D01*
X0123347Y0099309D02*
X0127031Y0099309D01*
X0127031Y0097711D02*
X0121548Y0097711D01*
X0121010Y0096112D02*
X0127031Y0096112D01*
X0127031Y0094514D02*
X0123192Y0094514D01*
X0123917Y0092915D02*
X0127031Y0092915D01*
X0127031Y0091317D02*
X0124000Y0091317D01*
X0123517Y0089718D02*
X0127031Y0089718D01*
X0127031Y0088120D02*
X0122225Y0088120D01*
X0122783Y0084923D02*
X0125419Y0084923D01*
X0126388Y0086521D02*
X0110481Y0086521D01*
X0110817Y0084923D02*
X0109600Y0084923D01*
X0109600Y0083324D02*
X0109852Y0083324D01*
X0109600Y0081726D02*
X0109600Y0081726D01*
X0109600Y0080127D02*
X0109914Y0080127D01*
X0109600Y0078529D02*
X0110966Y0078529D01*
X0116800Y0081800D02*
X0126800Y0081800D01*
X0116800Y0091800D02*
X0111800Y0091800D01*
X0106800Y0086800D01*
X0106800Y0027863D01*
X0101800Y0021800D01*
X0106800Y0016800D01*
X0105052Y0014588D02*
X0093117Y0014588D01*
X0093300Y0014406D02*
X0092006Y0015700D01*
X0090315Y0016400D01*
X0083285Y0016400D01*
X0081594Y0015700D01*
X0080300Y0014406D01*
X0079600Y0012715D01*
X0079600Y0010885D01*
X0080300Y0009194D01*
X0081594Y0007900D01*
X0083285Y0007200D01*
X0090315Y0007200D01*
X0092006Y0007900D01*
X0093300Y0009194D01*
X0094000Y0010885D01*
X0094000Y0012715D01*
X0093300Y0014406D01*
X0093886Y0012990D02*
X0109714Y0012990D01*
X0109600Y0011391D02*
X0094000Y0011391D01*
X0093547Y0009793D02*
X0110052Y0009793D01*
X0111301Y0008194D02*
X0092299Y0008194D01*
X0090830Y0016187D02*
X0103454Y0016187D01*
X0101855Y0017785D02*
X0091728Y0017785D01*
X0086800Y0021800D02*
X0101800Y0021800D01*
X0101451Y0025778D02*
X0100844Y0025778D01*
X0102157Y0027376D02*
X0102769Y0027376D01*
X0102619Y0028975D02*
X0104000Y0028975D01*
X0104000Y0030573D02*
X0102475Y0030573D01*
X0095457Y0033770D02*
X0093563Y0033770D01*
X0093300Y0034406D02*
X0092006Y0035700D01*
X0090315Y0036400D01*
X0083285Y0036400D01*
X0081594Y0035700D01*
X0080300Y0034406D01*
X0079600Y0032715D01*
X0079600Y0030885D01*
X0080300Y0029194D01*
X0081594Y0027900D01*
X0083285Y0027200D01*
X0090315Y0027200D01*
X0092006Y0027900D01*
X0093300Y0029194D01*
X0094000Y0030885D01*
X0094000Y0032715D01*
X0093300Y0034406D01*
X0092337Y0035369D02*
X0095457Y0035369D01*
X0095457Y0036967D02*
X0003800Y0036967D01*
X0003800Y0035369D02*
X0081263Y0035369D01*
X0080037Y0033770D02*
X0003800Y0033770D01*
X0003800Y0032172D02*
X0079600Y0032172D01*
X0079729Y0030573D02*
X0039532Y0030573D01*
X0038705Y0031400D02*
X0034895Y0031400D01*
X0032200Y0028705D01*
X0032200Y0024895D01*
X0034895Y0022200D01*
X0038705Y0022200D01*
X0041400Y0024895D01*
X0041400Y0028705D01*
X0038705Y0031400D01*
X0041131Y0028975D02*
X0080520Y0028975D01*
X0082860Y0027376D02*
X0041400Y0027376D01*
X0041400Y0025778D02*
X0081783Y0025778D01*
X0080206Y0024179D02*
X0040685Y0024179D01*
X0039086Y0022581D02*
X0079600Y0022581D01*
X0079600Y0020982D02*
X0003800Y0020982D01*
X0003800Y0019384D02*
X0080222Y0019384D01*
X0081872Y0017785D02*
X0003800Y0017785D01*
X0003800Y0016187D02*
X0009964Y0016187D01*
X0009977Y0016200D02*
X0007400Y0013623D01*
X0007400Y0011800D01*
X0011800Y0011800D01*
X0016200Y0011800D01*
X0016200Y0013623D01*
X0013623Y0016200D01*
X0011800Y0016200D01*
X0011800Y0011800D01*
X0011800Y0011800D01*
X0011800Y0011800D01*
X0016200Y0011800D01*
X0016200Y0009977D01*
X0013623Y0007400D01*
X0011800Y0007400D01*
X0011800Y0011800D01*
X0011800Y0011800D01*
X0011800Y0011800D01*
X0011800Y0016200D01*
X0009977Y0016200D01*
X0011800Y0016187D02*
X0011800Y0016187D01*
X0011800Y0014588D02*
X0011800Y0014588D01*
X0011800Y0012990D02*
X0011800Y0012990D01*
X0011800Y0011800D02*
X0007400Y0011800D01*
X0007400Y0009977D01*
X0009977Y0007400D01*
X0011800Y0007400D01*
X0011800Y0011800D01*
X0011800Y0011391D02*
X0011800Y0011391D01*
X0011800Y0009793D02*
X0011800Y0009793D01*
X0011800Y0008194D02*
X0011800Y0008194D01*
X0009183Y0008194D02*
X0003800Y0008194D01*
X0003800Y0006596D02*
X0196650Y0006596D01*
X0196650Y0008194D02*
X0122299Y0008194D01*
X0095669Y0025778D02*
X0091817Y0025778D01*
X0090740Y0027376D02*
X0094356Y0027376D01*
X0093894Y0028975D02*
X0093080Y0028975D01*
X0093871Y0030573D02*
X0094038Y0030573D01*
X0094000Y0032172D02*
X0094900Y0032172D01*
X0095457Y0038566D02*
X0092671Y0038566D01*
X0093300Y0039194D02*
X0092006Y0037900D01*
X0090315Y0037200D01*
X0083285Y0037200D01*
X0081594Y0037900D01*
X0080300Y0039194D01*
X0079600Y0040885D01*
X0079600Y0042715D01*
X0080300Y0044406D01*
X0081594Y0045700D01*
X0083285Y0046400D01*
X0090315Y0046400D01*
X0092006Y0045700D01*
X0093300Y0044406D01*
X0094000Y0042715D01*
X0094000Y0040885D01*
X0093300Y0039194D01*
X0093701Y0040164D02*
X0095457Y0040164D01*
X0095457Y0041763D02*
X0094000Y0041763D01*
X0093732Y0043361D02*
X0095457Y0043361D01*
X0095457Y0044960D02*
X0092746Y0044960D01*
X0095457Y0046558D02*
X0072500Y0046558D01*
X0072500Y0045666D02*
X0072500Y0047934D01*
X0071632Y0050029D01*
X0070029Y0051632D01*
X0069336Y0051919D01*
X0069683Y0052096D01*
X0070383Y0052605D01*
X0070995Y0053217D01*
X0071504Y0053917D01*
X0071897Y0054689D01*
X0072165Y0055512D01*
X0072300Y0056367D01*
X0072300Y0056800D01*
X0072300Y0057233D01*
X0072165Y0058088D01*
X0071897Y0058911D01*
X0071504Y0059683D01*
X0070995Y0060383D01*
X0070383Y0060995D01*
X0069683Y0061504D01*
X0069336Y0061681D01*
X0070029Y0061968D01*
X0071632Y0063571D01*
X0072500Y0065666D01*
X0072500Y0067934D01*
X0071632Y0070029D01*
X0070029Y0071632D01*
X0067934Y0072500D01*
X0065666Y0072500D01*
X0063571Y0071632D01*
X0061968Y0070029D01*
X0061100Y0067934D01*
X0061100Y0065666D01*
X0061968Y0063571D01*
X0063571Y0061968D01*
X0064264Y0061681D01*
X0063917Y0061504D01*
X0063217Y0060995D01*
X0062605Y0060383D01*
X0062096Y0059683D01*
X0061703Y0058911D01*
X0061435Y0058088D01*
X0061300Y0057233D01*
X0061300Y0056800D01*
X0066800Y0056800D01*
X0072300Y0056800D01*
X0066800Y0056800D01*
X0066800Y0056800D01*
X0066800Y0056800D01*
X0061300Y0056800D01*
X0061300Y0056367D01*
X0061435Y0055512D01*
X0061703Y0054689D01*
X0062096Y0053917D01*
X0062605Y0053217D01*
X0063217Y0052605D01*
X0063917Y0052096D01*
X0064264Y0051919D01*
X0063571Y0051632D01*
X0061968Y0050029D01*
X0061100Y0047934D01*
X0061100Y0045666D01*
X0061968Y0043571D01*
X0063571Y0041968D01*
X0065666Y0041100D01*
X0067934Y0041100D01*
X0070029Y0041968D01*
X0071632Y0043571D01*
X0072500Y0045666D01*
X0072207Y0044960D02*
X0080854Y0044960D01*
X0079868Y0043361D02*
X0071422Y0043361D01*
X0069534Y0041763D02*
X0079600Y0041763D01*
X0079899Y0040164D02*
X0003800Y0040164D01*
X0003800Y0038566D02*
X0080929Y0038566D01*
X0083285Y0047200D02*
X0090315Y0047200D01*
X0092006Y0047900D01*
X0093300Y0049194D01*
X0094000Y0050885D01*
X0094000Y0052715D01*
X0093300Y0054406D01*
X0092006Y0055700D01*
X0090315Y0056400D01*
X0083285Y0056400D01*
X0081594Y0055700D01*
X0080300Y0054406D01*
X0079600Y0052715D01*
X0079600Y0050885D01*
X0080300Y0049194D01*
X0081594Y0047900D01*
X0083285Y0047200D01*
X0081338Y0048157D02*
X0072408Y0048157D01*
X0071745Y0049755D02*
X0080068Y0049755D01*
X0079600Y0051354D02*
X0070307Y0051354D01*
X0070731Y0052952D02*
X0079698Y0052952D01*
X0080445Y0054551D02*
X0071827Y0054551D01*
X0072265Y0056149D02*
X0082680Y0056149D01*
X0083285Y0057200D02*
X0090315Y0057200D01*
X0092006Y0057900D01*
X0093300Y0059194D01*
X0094000Y0060885D01*
X0094000Y0062715D01*
X0093300Y0064406D01*
X0092006Y0065700D01*
X0090315Y0066400D01*
X0083285Y0066400D01*
X0081594Y0065700D01*
X0080300Y0064406D01*
X0079600Y0062715D01*
X0079600Y0060885D01*
X0080300Y0059194D01*
X0081594Y0057900D01*
X0083285Y0057200D01*
X0081962Y0057748D02*
X0072218Y0057748D01*
X0071675Y0059346D02*
X0080237Y0059346D01*
X0079600Y0060945D02*
X0070433Y0060945D01*
X0070604Y0062543D02*
X0079600Y0062543D01*
X0080191Y0064142D02*
X0071869Y0064142D01*
X0072500Y0065740D02*
X0081693Y0065740D01*
X0082511Y0067722D02*
X0083170Y0067508D01*
X0083854Y0067400D01*
X0086800Y0067400D01*
X0089746Y0067400D01*
X0090430Y0067508D01*
X0091089Y0067722D01*
X0091706Y0068037D01*
X0092266Y0068444D01*
X0092756Y0068934D01*
X0093163Y0069494D01*
X0093478Y0070111D01*
X0093692Y0070770D01*
X0093800Y0071454D01*
X0093800Y0071800D01*
X0093800Y0072146D01*
X0093692Y0072830D01*
X0093478Y0073489D01*
X0093163Y0074106D01*
X0092756Y0074666D01*
X0092266Y0075156D01*
X0091706Y0075563D01*
X0091089Y0075878D01*
X0090430Y0076092D01*
X0089746Y0076200D01*
X0086800Y0076200D01*
X0086800Y0071800D01*
X0086800Y0071800D01*
X0093800Y0071800D01*
X0086800Y0071800D01*
X0086800Y0071800D01*
X0086800Y0067400D01*
X0086800Y0071800D01*
X0086800Y0071800D01*
X0086800Y0071800D01*
X0079800Y0071800D01*
X0079800Y0072146D01*
X0079908Y0072830D01*
X0080122Y0073489D01*
X0080437Y0074106D01*
X0080844Y0074666D01*
X0081334Y0075156D01*
X0081894Y0075563D01*
X0082511Y0075878D01*
X0083170Y0076092D01*
X0083854Y0076200D01*
X0086800Y0076200D01*
X0086800Y0071800D01*
X0079800Y0071800D01*
X0079800Y0071454D01*
X0079908Y0070770D01*
X0080122Y0070111D01*
X0080437Y0069494D01*
X0080844Y0068934D01*
X0081334Y0068444D01*
X0081894Y0068037D01*
X0082511Y0067722D01*
X0080841Y0068937D02*
X0072084Y0068937D01*
X0072500Y0067339D02*
X0095457Y0067339D01*
X0095457Y0068937D02*
X0092759Y0068937D01*
X0093616Y0070536D02*
X0095457Y0070536D01*
X0095457Y0072134D02*
X0093800Y0072134D01*
X0093353Y0073733D02*
X0095457Y0073733D01*
X0095457Y0075332D02*
X0092025Y0075332D01*
X0090315Y0077200D02*
X0092006Y0077900D01*
X0093300Y0079194D01*
X0094000Y0080885D01*
X0094000Y0082715D01*
X0093300Y0084406D01*
X0092006Y0085700D01*
X0090315Y0086400D01*
X0083285Y0086400D01*
X0081594Y0085700D01*
X0080300Y0084406D01*
X0079600Y0082715D01*
X0079600Y0080885D01*
X0080300Y0079194D01*
X0081594Y0077900D01*
X0083285Y0077200D01*
X0090315Y0077200D01*
X0092634Y0078529D02*
X0095457Y0078529D01*
X0095457Y0080127D02*
X0093686Y0080127D01*
X0094000Y0081726D02*
X0095457Y0081726D01*
X0095457Y0083324D02*
X0093748Y0083324D01*
X0092783Y0084923D02*
X0095457Y0084923D01*
X0095457Y0086521D02*
X0033443Y0086521D01*
X0032344Y0084923D02*
X0080817Y0084923D01*
X0079852Y0083324D02*
X0031245Y0083324D01*
X0030147Y0081726D02*
X0079600Y0081726D01*
X0079914Y0080127D02*
X0029087Y0080127D01*
X0027488Y0078529D02*
X0080966Y0078529D01*
X0081575Y0075332D02*
X0024291Y0075332D01*
X0025890Y0076930D02*
X0095457Y0076930D01*
X0086800Y0075332D02*
X0086800Y0075332D01*
X0086800Y0073733D02*
X0086800Y0073733D01*
X0086800Y0072134D02*
X0086800Y0072134D01*
X0086800Y0070536D02*
X0086800Y0070536D01*
X0086800Y0068937D02*
X0086800Y0068937D01*
X0091907Y0065740D02*
X0095457Y0065740D01*
X0095457Y0064142D02*
X0093409Y0064142D01*
X0094000Y0062543D02*
X0095457Y0062543D01*
X0095457Y0060945D02*
X0094000Y0060945D01*
X0093363Y0059346D02*
X0095457Y0059346D01*
X0095457Y0057748D02*
X0091638Y0057748D01*
X0090920Y0056149D02*
X0095457Y0056149D01*
X0095457Y0054551D02*
X0093154Y0054551D01*
X0093902Y0052952D02*
X0095457Y0052952D01*
X0095457Y0051354D02*
X0094000Y0051354D01*
X0093532Y0049755D02*
X0095457Y0049755D01*
X0095457Y0048157D02*
X0092262Y0048157D01*
X0079984Y0070536D02*
X0071125Y0070536D01*
X0068816Y0072134D02*
X0079800Y0072134D01*
X0080247Y0073733D02*
X0011699Y0073733D01*
X0010196Y0072134D02*
X0064784Y0072134D01*
X0062475Y0070536D02*
X0010842Y0070536D01*
X0011884Y0068937D02*
X0061516Y0068937D01*
X0061100Y0067339D02*
X0012283Y0067339D01*
X0012300Y0066600D02*
X0007000Y0066600D01*
X0007000Y0061300D01*
X0007233Y0061300D01*
X0008088Y0061435D01*
X0008911Y0061703D01*
X0009683Y0062096D01*
X0010383Y0062605D01*
X0010995Y0063217D01*
X0011504Y0063917D01*
X0011897Y0064689D01*
X0012165Y0065512D01*
X0012300Y0066367D01*
X0012300Y0066600D01*
X0012201Y0065740D02*
X0061100Y0065740D01*
X0061731Y0064142D02*
X0011618Y0064142D01*
X0010298Y0062543D02*
X0062996Y0062543D01*
X0063167Y0060945D02*
X0003800Y0060945D01*
X0003800Y0059346D02*
X0061925Y0059346D01*
X0061382Y0057748D02*
X0003800Y0057748D01*
X0003800Y0056149D02*
X0014927Y0056149D01*
X0014977Y0056200D02*
X0012400Y0053623D01*
X0012400Y0051800D01*
X0016800Y0051800D01*
X0021200Y0051800D01*
X0021200Y0053623D01*
X0018623Y0056200D01*
X0016800Y0056200D01*
X0016800Y0051800D01*
X0016800Y0051800D01*
X0016800Y0051800D01*
X0021200Y0051800D01*
X0021200Y0049977D01*
X0018623Y0047400D01*
X0016800Y0047400D01*
X0016800Y0051800D01*
X0016800Y0051800D01*
X0016800Y0051800D01*
X0016800Y0056200D01*
X0014977Y0056200D01*
X0016800Y0056149D02*
X0016800Y0056149D01*
X0016800Y0054551D02*
X0016800Y0054551D01*
X0016800Y0052952D02*
X0016800Y0052952D01*
X0016800Y0051800D02*
X0012400Y0051800D01*
X0012400Y0049977D01*
X0014977Y0047400D01*
X0016800Y0047400D01*
X0016800Y0051800D01*
X0016800Y0051354D02*
X0016800Y0051354D01*
X0016800Y0049755D02*
X0016800Y0049755D01*
X0016800Y0048157D02*
X0016800Y0048157D01*
X0019379Y0048157D02*
X0023938Y0048157D01*
X0024895Y0047200D02*
X0022200Y0049895D01*
X0022200Y0053705D01*
X0024895Y0056400D01*
X0028705Y0056400D01*
X0031400Y0053705D01*
X0031400Y0049895D01*
X0028705Y0047200D01*
X0024895Y0047200D01*
X0022339Y0049755D02*
X0020978Y0049755D01*
X0021200Y0051354D02*
X0022200Y0051354D01*
X0022200Y0052952D02*
X0021200Y0052952D01*
X0020272Y0054551D02*
X0023045Y0054551D01*
X0024644Y0056149D02*
X0018673Y0056149D01*
X0013328Y0054551D02*
X0003800Y0054551D01*
X0003800Y0052952D02*
X0012400Y0052952D01*
X0012400Y0051354D02*
X0003800Y0051354D01*
X0003800Y0049755D02*
X0012622Y0049755D01*
X0014221Y0048157D02*
X0003800Y0048157D01*
X0003800Y0046558D02*
X0061100Y0046558D01*
X0061192Y0048157D02*
X0029662Y0048157D01*
X0031261Y0049755D02*
X0061855Y0049755D01*
X0063293Y0051354D02*
X0031400Y0051354D01*
X0031400Y0052952D02*
X0062869Y0052952D01*
X0061773Y0054551D02*
X0030554Y0054551D01*
X0028956Y0056149D02*
X0061334Y0056149D01*
X0061393Y0044960D02*
X0003800Y0044960D01*
X0003800Y0043361D02*
X0062178Y0043361D01*
X0064066Y0041763D02*
X0003800Y0041763D01*
X0003800Y0030573D02*
X0024351Y0030573D01*
X0024977Y0031200D02*
X0022400Y0028623D01*
X0022400Y0026800D01*
X0026800Y0026800D01*
X0031200Y0026800D01*
X0031200Y0028623D01*
X0028623Y0031200D01*
X0026800Y0031200D01*
X0026800Y0026800D01*
X0026800Y0026800D01*
X0026800Y0026800D01*
X0031200Y0026800D01*
X0031200Y0024977D01*
X0028623Y0022400D01*
X0026800Y0022400D01*
X0026800Y0026800D01*
X0026800Y0026800D01*
X0026800Y0026800D01*
X0026800Y0031200D01*
X0024977Y0031200D01*
X0026800Y0030573D02*
X0026800Y0030573D01*
X0026800Y0028975D02*
X0026800Y0028975D01*
X0026800Y0027376D02*
X0026800Y0027376D01*
X0026800Y0026800D02*
X0022400Y0026800D01*
X0022400Y0024977D01*
X0024977Y0022400D01*
X0026800Y0022400D01*
X0026800Y0026800D01*
X0026800Y0025778D02*
X0026800Y0025778D01*
X0026800Y0024179D02*
X0026800Y0024179D01*
X0026800Y0022581D02*
X0026800Y0022581D01*
X0028803Y0022581D02*
X0034514Y0022581D01*
X0032915Y0024179D02*
X0030402Y0024179D01*
X0031200Y0025778D02*
X0032200Y0025778D01*
X0032200Y0027376D02*
X0031200Y0027376D01*
X0030848Y0028975D02*
X0032469Y0028975D01*
X0034068Y0030573D02*
X0029249Y0030573D01*
X0022752Y0028975D02*
X0003800Y0028975D01*
X0003800Y0027376D02*
X0022400Y0027376D01*
X0022400Y0025778D02*
X0003800Y0025778D01*
X0003800Y0024179D02*
X0023198Y0024179D01*
X0024797Y0022581D02*
X0003800Y0022581D01*
X0003800Y0014588D02*
X0008366Y0014588D01*
X0007400Y0012990D02*
X0003800Y0012990D01*
X0003800Y0011391D02*
X0007400Y0011391D01*
X0007585Y0009793D02*
X0003800Y0009793D01*
X0003800Y0004997D02*
X0196650Y0004997D01*
X0095457Y0088120D02*
X0092225Y0088120D01*
X0092006Y0087900D02*
X0093300Y0089194D01*
X0094000Y0090885D01*
X0094000Y0092715D01*
X0093300Y0094406D01*
X0092006Y0095700D01*
X0090315Y0096400D01*
X0083285Y0096400D01*
X0081594Y0095700D01*
X0080300Y0094406D01*
X0079600Y0092715D01*
X0079600Y0090885D01*
X0080300Y0089194D01*
X0081594Y0087900D01*
X0083285Y0087200D01*
X0090315Y0087200D01*
X0092006Y0087900D01*
X0093517Y0089718D02*
X0095457Y0089718D01*
X0095457Y0091317D02*
X0094000Y0091317D01*
X0093917Y0092915D02*
X0095457Y0092915D01*
X0095457Y0094514D02*
X0093192Y0094514D01*
X0091010Y0096112D02*
X0095457Y0096112D01*
X0082590Y0096112D02*
X0035867Y0096112D01*
X0037466Y0094514D02*
X0080408Y0094514D01*
X0079683Y0092915D02*
X0038274Y0092915D01*
X0038274Y0091317D02*
X0079600Y0091317D01*
X0080083Y0089718D02*
X0038098Y0089718D01*
X0036499Y0088120D02*
X0081375Y0088120D01*
X0082052Y0097711D02*
X0012500Y0097711D01*
X0012500Y0096112D02*
X0031481Y0096112D01*
X0029882Y0094514D02*
X0012023Y0094514D01*
X0010976Y0092915D02*
X0029074Y0092915D01*
X0029074Y0091317D02*
X0010344Y0091317D01*
X0011761Y0089718D02*
X0028845Y0089718D01*
X0027746Y0088120D02*
X0012423Y0088120D01*
X0012500Y0086521D02*
X0026648Y0086521D01*
X0025549Y0084923D02*
X0012192Y0084923D01*
X0011385Y0083324D02*
X0024364Y0083324D01*
X0022766Y0081726D02*
X0009803Y0081726D01*
X0011534Y0080127D02*
X0021167Y0080127D01*
X0021800Y0076800D02*
X0006800Y0076800D01*
X0006600Y0065740D02*
X0007000Y0065740D01*
X0007000Y0064142D02*
X0006600Y0064142D01*
X0006600Y0062543D02*
X0007000Y0062543D01*
X0021800Y0076800D02*
X0026800Y0081800D01*
X0033674Y0091800D01*
X0047979Y0108900D02*
X0012100Y0108900D01*
X0012500Y0107302D02*
X0062338Y0107302D01*
X0060740Y0108900D02*
X0054046Y0108900D01*
X0055097Y0110499D02*
X0059141Y0110499D01*
X0057543Y0112097D02*
X0055375Y0112097D01*
X0055047Y0113696D02*
X0055944Y0113696D01*
X0054346Y0115294D02*
X0053924Y0115294D01*
X0052747Y0116893D02*
X0050116Y0116893D01*
X0051149Y0118491D02*
X0048517Y0118491D01*
X0049550Y0120090D02*
X0046919Y0120090D01*
X0045320Y0121688D02*
X0049000Y0121688D01*
X0049000Y0123287D02*
X0044600Y0123287D01*
X0044600Y0124885D02*
X0049000Y0124885D01*
X0049000Y0126484D02*
X0044600Y0126484D01*
X0044600Y0128082D02*
X0049000Y0128082D01*
X0049000Y0129681D02*
X0044600Y0129681D01*
X0044600Y0131279D02*
X0049000Y0131279D01*
X0039000Y0131279D02*
X0036007Y0131279D01*
X0036246Y0130433D02*
X0031344Y0147783D01*
X0032132Y0148571D01*
X0033000Y0150666D01*
X0033000Y0152934D01*
X0032132Y0155029D01*
X0030529Y0156632D01*
X0029584Y0157023D01*
X0031132Y0158571D01*
X0032000Y0160666D01*
X0032000Y0162934D01*
X0031132Y0165029D01*
X0029529Y0166632D01*
X0029381Y0166693D01*
X0029411Y0166703D01*
X0030183Y0167096D01*
X0030883Y0167605D01*
X0031495Y0168217D01*
X0032004Y0168917D01*
X0032397Y0169689D01*
X0032665Y0170512D01*
X0032800Y0171367D01*
X0032800Y0171600D01*
X0027500Y0171600D01*
X0027500Y0172000D01*
X0032800Y0172000D01*
X0032800Y0172233D01*
X0032665Y0173088D01*
X0032397Y0173911D01*
X0032004Y0174683D01*
X0031495Y0175383D01*
X0030883Y0175995D01*
X0030183Y0176504D01*
X0029411Y0176897D01*
X0028588Y0177165D01*
X0027733Y0177300D01*
X0027500Y0177300D01*
X0027500Y0172000D01*
X0027100Y0172000D01*
X0027100Y0177300D01*
X0026867Y0177300D01*
X0026012Y0177165D01*
X0025189Y0176897D01*
X0024417Y0176504D01*
X0023717Y0175995D01*
X0023105Y0175383D01*
X0022596Y0174683D01*
X0022203Y0173911D01*
X0021935Y0173088D01*
X0021800Y0172233D01*
X0021800Y0172000D01*
X0027100Y0172000D01*
X0027100Y0171600D01*
X0021800Y0171600D01*
X0021800Y0171367D01*
X0021935Y0170512D01*
X0022203Y0169689D01*
X0022596Y0168917D01*
X0023105Y0168217D01*
X0023717Y0167605D01*
X0024335Y0167156D01*
X0023071Y0166632D01*
X0021468Y0165029D01*
X0020600Y0162934D01*
X0020600Y0160666D01*
X0021468Y0158571D01*
X0023071Y0156968D01*
X0024016Y0156577D01*
X0022468Y0155029D01*
X0021600Y0152934D01*
X0021600Y0150666D01*
X0022468Y0148571D01*
X0024071Y0146968D01*
X0025979Y0146178D01*
X0030804Y0129099D01*
X0030839Y0125470D01*
X0029074Y0123705D01*
X0029074Y0119895D01*
X0031769Y0117200D01*
X0035579Y0117200D01*
X0038274Y0119895D01*
X0038274Y0123705D01*
X0036438Y0125541D01*
X0036402Y0129349D01*
X0036446Y0129725D01*
X0036396Y0129901D01*
X0036395Y0130084D01*
X0036246Y0130433D01*
X0036441Y0129681D02*
X0039000Y0129681D01*
X0039000Y0128082D02*
X0036414Y0128082D01*
X0036429Y0126484D02*
X0039000Y0126484D01*
X0039000Y0124885D02*
X0037094Y0124885D01*
X0038274Y0123287D02*
X0039000Y0123287D01*
X0039000Y0121688D02*
X0038274Y0121688D01*
X0038274Y0120090D02*
X0039249Y0120090D01*
X0040598Y0118491D02*
X0036871Y0118491D01*
X0033674Y0121800D02*
X0033600Y0129500D01*
X0027300Y0151800D01*
X0029990Y0156856D02*
X0039000Y0156856D01*
X0039000Y0158454D02*
X0031015Y0158454D01*
X0031746Y0160053D02*
X0039000Y0160053D01*
X0039000Y0161651D02*
X0032000Y0161651D01*
X0031869Y0163250D02*
X0039000Y0163250D01*
X0039000Y0164848D02*
X0031207Y0164848D01*
X0029714Y0166447D02*
X0039000Y0166447D01*
X0039000Y0168045D02*
X0031323Y0168045D01*
X0032374Y0169644D02*
X0039000Y0169644D01*
X0039000Y0171242D02*
X0032780Y0171242D01*
X0032704Y0172841D02*
X0039000Y0172841D01*
X0039000Y0174439D02*
X0032128Y0174439D01*
X0030824Y0176038D02*
X0039000Y0176038D01*
X0039000Y0177636D02*
X0003800Y0177636D01*
X0003800Y0176038D02*
X0023776Y0176038D01*
X0022472Y0174439D02*
X0003800Y0174439D01*
X0003800Y0172841D02*
X0021896Y0172841D01*
X0021820Y0171242D02*
X0003800Y0171242D01*
X0003800Y0169644D02*
X0022226Y0169644D01*
X0023277Y0168045D02*
X0003800Y0168045D01*
X0003800Y0166447D02*
X0022886Y0166447D01*
X0021393Y0164848D02*
X0003800Y0164848D01*
X0003800Y0163250D02*
X0020731Y0163250D01*
X0020600Y0161651D02*
X0003800Y0161651D01*
X0003800Y0160053D02*
X0020854Y0160053D01*
X0021585Y0158454D02*
X0003800Y0158454D01*
X0003800Y0156856D02*
X0023342Y0156856D01*
X0022696Y0155257D02*
X0003800Y0155257D01*
X0003800Y0153659D02*
X0021900Y0153659D01*
X0021600Y0152060D02*
X0003800Y0152060D01*
X0003800Y0150462D02*
X0021685Y0150462D01*
X0022347Y0148863D02*
X0003800Y0148863D01*
X0003800Y0147265D02*
X0023774Y0147265D01*
X0026123Y0145666D02*
X0003800Y0145666D01*
X0003800Y0144068D02*
X0026575Y0144068D01*
X0027027Y0142469D02*
X0008009Y0142469D01*
X0005591Y0142469D02*
X0003800Y0142469D01*
X0010791Y0140870D02*
X0027478Y0140870D01*
X0027930Y0139272D02*
X0011946Y0139272D01*
X0012500Y0137673D02*
X0028381Y0137673D01*
X0028833Y0136075D02*
X0012500Y0136075D01*
X0012007Y0134476D02*
X0029284Y0134476D01*
X0029736Y0132878D02*
X0010939Y0132878D01*
X0010382Y0131279D02*
X0030188Y0131279D01*
X0030639Y0129681D02*
X0011776Y0129681D01*
X0012438Y0128082D02*
X0030813Y0128082D01*
X0030829Y0126484D02*
X0012500Y0126484D01*
X0012177Y0124885D02*
X0030254Y0124885D01*
X0029074Y0123287D02*
X0011348Y0123287D01*
X0009893Y0121688D02*
X0029074Y0121688D01*
X0029074Y0120090D02*
X0011571Y0120090D01*
X0012269Y0118491D02*
X0030477Y0118491D01*
X0041800Y0121249D02*
X0051013Y0112036D01*
X0046928Y0110499D02*
X0011162Y0110499D01*
X0010158Y0112097D02*
X0046650Y0112097D01*
X0045393Y0113696D02*
X0011684Y0113696D01*
X0012346Y0115294D02*
X0043795Y0115294D01*
X0042196Y0116893D02*
X0012500Y0116893D01*
X0012500Y0105703D02*
X0063937Y0105703D01*
X0065535Y0104105D02*
X0011853Y0104105D01*
X0010567Y0102506D02*
X0067134Y0102506D01*
X0068732Y0100908D02*
X0010753Y0100908D01*
X0011930Y0099309D02*
X0070497Y0099309D01*
X0071857Y0105703D02*
X0081603Y0105703D01*
X0083039Y0107302D02*
X0070258Y0107302D01*
X0068660Y0108900D02*
X0080594Y0108900D01*
X0079760Y0110499D02*
X0067061Y0110499D01*
X0065462Y0112097D02*
X0079600Y0112097D01*
X0080006Y0113696D02*
X0063864Y0113696D01*
X0062265Y0115294D02*
X0081189Y0115294D01*
X0092820Y0124885D02*
X0095457Y0124885D01*
X0095457Y0123287D02*
X0093763Y0123287D01*
X0094000Y0121688D02*
X0095457Y0121688D01*
X0095457Y0120090D02*
X0093671Y0120090D01*
X0109268Y0168045D02*
X0109700Y0168045D01*
X0111200Y0171242D02*
X0112237Y0171242D01*
X0117422Y0188826D02*
X0118304Y0188826D01*
X0118750Y0195220D02*
X0116976Y0195220D01*
X0124850Y0195220D02*
X0126938Y0195220D01*
X0129674Y0195220D02*
X0129674Y0195220D01*
X0129674Y0193621D02*
X0129674Y0193621D01*
X0129674Y0192023D02*
X0129674Y0192023D01*
X0129674Y0191800D02*
X0129674Y0191800D01*
X0129674Y0190424D02*
X0129674Y0190424D01*
X0129674Y0188826D02*
X0129674Y0188826D01*
X0126461Y0188826D02*
X0125296Y0188826D01*
X0132887Y0188826D02*
X0133496Y0188826D01*
X0133941Y0195220D02*
X0132410Y0195220D01*
X0133936Y0179235D02*
X0085871Y0179235D01*
X0086400Y0177636D02*
X0132338Y0177636D01*
X0135462Y0172841D02*
X0146104Y0172841D01*
X0058312Y0187227D02*
X0055288Y0187227D01*
X0056738Y0188826D02*
X0056862Y0188826D01*
X0041800Y0191800D02*
X0041800Y0121249D01*
X0039000Y0132878D02*
X0035555Y0132878D01*
X0035104Y0134476D02*
X0039000Y0134476D01*
X0039000Y0136075D02*
X0034652Y0136075D01*
X0034200Y0137673D02*
X0039000Y0137673D01*
X0039000Y0139272D02*
X0033749Y0139272D01*
X0033297Y0140870D02*
X0039000Y0140870D01*
X0039000Y0142469D02*
X0032846Y0142469D01*
X0032394Y0144068D02*
X0039000Y0144068D01*
X0039000Y0145666D02*
X0031942Y0145666D01*
X0031491Y0147265D02*
X0039000Y0147265D01*
X0039000Y0148863D02*
X0032253Y0148863D01*
X0032915Y0150462D02*
X0039000Y0150462D01*
X0039000Y0152060D02*
X0033000Y0152060D01*
X0032700Y0153659D02*
X0039000Y0153659D01*
X0039000Y0155257D02*
X0031904Y0155257D01*
X0027500Y0172841D02*
X0027100Y0172841D01*
X0027100Y0174439D02*
X0027500Y0174439D01*
X0027500Y0176038D02*
X0027100Y0176038D01*
X0028737Y0187227D02*
X0025288Y0187227D01*
X0026738Y0188826D02*
X0027162Y0188826D01*
X0031600Y0188826D02*
X0032000Y0188826D01*
X0032000Y0190424D02*
X0031600Y0190424D01*
X0031600Y0187227D02*
X0032000Y0187227D01*
X0034863Y0187227D02*
X0038312Y0187227D01*
X0039000Y0185629D02*
X0003800Y0185629D01*
X0003800Y0187227D02*
X0008312Y0187227D01*
X0006862Y0188826D02*
X0003800Y0188826D01*
X0003800Y0190424D02*
X0006200Y0190424D01*
X0006100Y0192023D02*
X0003800Y0192023D01*
X0003800Y0193621D02*
X0006385Y0193621D01*
X0007159Y0195220D02*
X0003800Y0195220D01*
X0003800Y0184030D02*
X0039000Y0184030D01*
X0039000Y0182432D02*
X0003800Y0182432D01*
X0003800Y0180833D02*
X0039000Y0180833D01*
X0039000Y0179235D02*
X0003800Y0179235D01*
X0015288Y0187227D02*
X0018312Y0187227D01*
X0016862Y0188826D02*
X0016738Y0188826D01*
X0036438Y0188826D02*
X0036862Y0188826D01*
X0039895Y0016400D02*
X0037200Y0013705D01*
X0037200Y0009895D01*
X0039895Y0007200D01*
X0043705Y0007200D01*
X0046400Y0009895D01*
X0046400Y0013705D01*
X0043705Y0016400D01*
X0039895Y0016400D01*
X0039681Y0016187D02*
X0013636Y0016187D01*
X0015234Y0014588D02*
X0038083Y0014588D01*
X0037200Y0012990D02*
X0016200Y0012990D01*
X0016200Y0011391D02*
X0037200Y0011391D01*
X0037302Y0009793D02*
X0016015Y0009793D01*
X0014417Y0008194D02*
X0038901Y0008194D01*
X0044699Y0008194D02*
X0053901Y0008194D01*
X0054895Y0007200D02*
X0058705Y0007200D01*
X0061400Y0009895D01*
X0061400Y0013705D01*
X0058705Y0016400D01*
X0054895Y0016400D01*
X0052200Y0013705D01*
X0052200Y0009895D01*
X0054895Y0007200D01*
X0052302Y0009793D02*
X0046298Y0009793D01*
X0046400Y0011391D02*
X0052200Y0011391D01*
X0052200Y0012990D02*
X0046400Y0012990D01*
X0045517Y0014588D02*
X0053083Y0014588D01*
X0054681Y0016187D02*
X0043919Y0016187D01*
X0058919Y0016187D02*
X0064681Y0016187D01*
X0064895Y0016400D02*
X0062200Y0013705D01*
X0062200Y0009895D01*
X0064895Y0007200D01*
X0068705Y0007200D01*
X0071400Y0009895D01*
X0071400Y0013705D01*
X0068705Y0016400D01*
X0064895Y0016400D01*
X0063083Y0014588D02*
X0060517Y0014588D01*
X0061400Y0012990D02*
X0062200Y0012990D01*
X0062200Y0011391D02*
X0061400Y0011391D01*
X0061298Y0009793D02*
X0062302Y0009793D01*
X0063901Y0008194D02*
X0059699Y0008194D01*
X0068919Y0016187D02*
X0082770Y0016187D01*
X0080483Y0014588D02*
X0070517Y0014588D01*
X0071400Y0012990D02*
X0079714Y0012990D01*
X0079600Y0011391D02*
X0071400Y0011391D01*
X0071298Y0009793D02*
X0080052Y0009793D01*
X0081301Y0008194D02*
X0069699Y0008194D01*
D20*
X0098257Y0029359D03*
X0153375Y0102194D03*
X0147469Y0176997D03*
X0051013Y0112036D03*
M02*
