%
M48
M72
T01C0.03150
T02C0.03200
T03C0.03937
T04C0.04000
T05C0.07480
%
T01
X66800Y46800
X66800Y56800
X66800Y66800
X98257Y29359
X153375Y102194
X165501Y166721
X168650Y171446
X171800Y166721
X174950Y171446
X178099Y166721
X147469Y176997
X129674Y191800
X121800Y191800
X113926Y191800
X51013Y112036
T02
X66800Y166800
X81800Y166800
X81800Y176800
X106800Y171800
X114300Y166800
X106800Y161800
X116800Y141800
X116800Y131800
X116800Y121800
X116800Y111800
X116800Y101800
X116800Y91800
X116800Y81800
X116800Y71800
X116800Y61800
X116800Y51800
X116800Y41800
X116800Y31800
X116800Y21800
X116800Y11800
X136800Y16800
X166800Y16800
X146800Y61800
X136800Y61800
X86800Y61800
X86800Y51800
X86800Y41800
X86800Y31800
X86800Y21800
X86800Y11800
X66800Y11800
X56800Y11800
X41800Y11800
X36800Y26800
X26800Y26800
X11800Y11800
X16800Y51800
X26800Y51800
X33674Y91800
X33674Y121800
X66800Y136800
X86800Y131800
X86800Y121800
X86800Y111800
X86800Y101800
X86800Y91800
X86800Y81800
X86800Y71800
X86800Y141800
X131800Y156800
X141800Y156800
X151800Y141800
X161800Y141800
T03
X106052Y191800
X137548Y191800
T04
X11800Y191800
X21800Y191800
X31800Y191800
X41800Y191800
X51800Y191800
X61800Y191800
X27300Y171800
X26300Y161800
X27300Y151800
X6800Y136800
X6800Y126800
X6800Y116800
X6800Y106800
X6800Y96800
X6800Y86800
X6800Y76800
X6800Y66800
X186300Y36800
X187300Y26800
X186300Y16800
X194300Y66800
X194300Y76800
X194300Y86800
X194300Y96800
X194300Y106800
X194300Y116800
X194300Y126800
X194300Y136800
T05
X157430Y186800
X186170Y186800
M30
